<?xml version="1.0" encoding="UTF-8"?>
<svg version="1.1" xmlns="http://www.w3.org/2000/svg" width="1906" height="634">
<path d="M0 0 C6.15633121 4.36719148 9.22542652 11.73483328 12.67773438 18.22802734 C14.67249494 21.94463016 16.72282762 25.62966827 18.77037048 29.31738281 C25.69997871 41.80075912 32.52464857 54.33707536 39.27392578 66.91894531 C42.92335569 73.71544599 46.62839099 80.47671742 50.39477539 87.20898438 C53.80885306 93.32341939 57.13495261 99.48363397 60.45703125 105.6484375 C64.69863671 113.51541049 69.02707025 121.32359608 73.45703125 129.0859375 C79.30760502 139.34818435 84.87178957 149.75034018 90.40673828 160.18457031 C94.36118391 167.6363996 98.36889477 175.05252714 102.49560547 182.41064453 C105.88099659 188.45528082 109.17102086 194.54930763 112.45703125 200.6484375 C117.20158099 209.44843107 122.07350409 218.16502693 127.03369141 226.8449707 C130.26235269 232.53043383 133.39114126 238.2606449 136.44921875 244.0390625 C136.81381699 244.72745209 137.17841522 245.41584167 137.55406189 246.12509155 C139.35883459 249.53713325 141.15491082 252.9534607 142.94067383 256.37548828 C143.59575141 257.62017744 144.25093807 258.86480921 144.90625 260.109375 C145.48334717 261.21458496 146.06044434 262.31979492 146.6550293 263.45849609 C147.90102253 266.06411811 147.90102253 266.06411811 150.14453125 266.9609375 C157.83463488 253.14048387 165.51030603 239.31234334 173.14453125 225.4609375 C181.39313496 210.49611108 189.6927637 195.55984978 197.99902344 180.62695312 C205.06831941 167.91635153 212.1235047 155.19825444 219.14453125 142.4609375 C227.39333773 127.49622233 235.69276316 112.55985074 243.99902344 97.62695312 C251.06832048 84.91634961 258.12311016 72.19803799 265.14453125 59.4609375 C270.17016259 50.3460622 275.19866517 41.23279348 280.24682617 32.13037109 C281.16868232 30.46760794 282.089252 28.80413175 283.00976562 27.140625 C297.56050467 0.9263285 297.56050467 0.9263285 306.14453125 -2.0390625 C312.65446842 -2.69274257 318.62108051 -2.94589351 324.14453125 0.9609375 C328.8713132 5.10681864 331.58517873 9.78072587 334.58203125 15.2109375 C335.09717285 16.12842773 335.61231445 17.04591797 336.14306641 17.99121094 C337.2476355 19.96084388 338.34843548 21.93259445 339.44580078 23.90625 C341.13832199 26.94977191 342.84103458 29.9873635 344.546875 33.0234375 C347.49070162 38.26606228 350.42577485 43.51352438 353.35791016 48.76269531 C356.3051166 54.03850899 359.25542854 59.31258228 362.20703125 64.5859375 C362.78694824 65.62202148 363.36686523 66.65810547 363.96435547 67.72558594 C367.84115126 74.64680985 371.73692664 81.55706759 375.64453125 88.4609375 C383.11374449 101.65737924 390.51389525 114.89225471 397.91503906 128.12695312 C404.13647511 139.25064718 410.36650659 150.36906155 416.64453125 161.4609375 C424.11374449 174.65737924 431.51389525 187.89225471 438.91503906 201.12695312 C445.2045534 212.3723686 451.49959214 223.61462157 457.83203125 234.8359375 C458.36022461 235.77219971 458.88841797 236.70846191 459.43261719 237.6730957 C462.05928688 242.31687552 464.70960952 246.94495894 467.40234375 251.55078125 C467.91708252 252.4320166 468.43182129 253.31325195 468.9621582 254.22119141 C469.93574975 255.88343639 470.91325922 257.5433948 471.89526367 259.20068359 C472.53878784 260.29823975 472.53878784 260.29823975 473.1953125 261.41796875 C473.57341064 262.05710205 473.95150879 262.69623535 474.34106445 263.35473633 C475.14453125 264.9609375 475.14453125 264.9609375 475.14453125 266.9609375 C475.80453125 266.9609375 476.46453125 266.9609375 477.14453125 266.9609375 C477.54720215 265.89407715 477.54720215 265.89407715 477.95800781 264.80566406 C479.1755124 261.88665924 480.58569919 259.20540557 482.12890625 256.4453125 C482.72719238 255.3718457 483.32547852 254.29837891 483.94189453 253.19238281 C484.58626465 252.04350586 485.23063477 250.89462891 485.89453125 249.7109375 C486.57039655 248.50111441 487.2460112 247.29115127 487.92138672 246.08105469 C489.65702518 242.97293998 491.39624924 239.86684714 493.13635254 236.76123047 C494.69087253 233.98534224 496.24175427 231.2074239 497.79296875 228.4296875 C503.91458269 217.47504055 510.07144652 206.54072497 516.25268555 195.61962891 C522.58762416 184.42116642 528.86476188 173.19039823 535.14453125 161.9609375 C542.48663864 148.8318078 549.84281714 135.71127844 557.25244141 122.62011719 C563.58737429 111.42144236 569.86467295 100.19055725 576.14453125 88.9609375 C583.48055533 75.84268595 590.82757481 62.73125006 598.23486328 49.65307617 C601.12384845 44.54867374 603.99975583 39.43732655 606.859375 34.31640625 C607.48070312 33.20394531 608.10203125 32.09148437 608.7421875 30.9453125 C609.92979853 28.81719423 611.11609286 26.68834038 612.30078125 24.55859375 C625.47156109 0.95705446 625.47156109 0.95705446 634.14453125 -2.0390625 C640.65446842 -2.69274257 646.62108051 -2.94589351 652.14453125 0.9609375 C656.70483696 4.88492148 659.56710574 8.49108696 660.5703125 14.51953125 C661.19212042 23.70034236 657.58915857 30.27589223 653.14453125 37.9609375 C652.27391321 39.49692773 651.40416846 41.03341318 650.53515625 42.5703125 C648.54236722 46.07964601 646.53252326 49.57869412 644.515625 53.07421875 C640.84430308 59.45700443 637.27304387 65.89388701 633.70703125 72.3359375 C628.51061171 81.71669284 623.27266251 91.07199591 617.98632812 100.40234375 C614.04030821 107.36930932 610.11722295 114.3488025 606.20703125 121.3359375 C605.62630859 122.37363281 605.04558594 123.41132813 604.44726562 124.48046875 C602.67933351 127.64042715 600.91184511 130.80063328 599.14453125 133.9609375 C591.80242386 147.0900672 584.44624536 160.21059656 577.03662109 173.30175781 C570.70168821 184.50043264 564.42438955 195.73131775 558.14453125 206.9609375 C550.80242386 220.0900672 543.44624536 233.21059656 536.03662109 246.30175781 C532.07589972 253.30338381 528.13646575 260.31670993 524.20703125 267.3359375 C523.63073975 268.36404541 523.05444824 269.39215332 522.46069336 270.45141602 C519.42292097 275.87440855 516.39925232 281.30471222 513.39453125 286.74609375 C512.77698975 287.86000488 512.15944824 288.97391602 511.52319336 290.12158203 C510.35278452 292.23332116 509.18660018 294.34740996 508.02563477 296.46435547 C497.79939921 314.87925107 497.79939921 314.87925107 490.95703125 318.5234375 C490.13847656 318.97847656 489.31992187 319.43351562 488.4765625 319.90234375 C481.92175945 322.87780711 474.2306129 323.04868061 467.3125 321.20703125 C453.19303829 315.80903614 447.97912576 302.91266667 441.08203125 290.3359375 C440.09670506 288.54943966 439.11005048 286.76367923 438.12341309 284.97790527 C437.45218267 283.76272009 436.78136605 282.54730626 436.11096191 281.33166504 C432.77183845 275.27759519 429.39970308 269.24217796 426.01953125 263.2109375 C425.15606079 261.66962158 425.15606079 261.66962158 424.27514648 260.09716797 C419.88121524 252.2605498 415.46178627 244.43850148 411.03637695 236.61962891 C404.10609154 224.36875389 397.24395293 212.07970478 390.37402344 199.79492188 C384.15258739 188.67122782 377.92255591 177.55281345 371.64453125 166.4609375 C364.17531801 153.26449576 356.77516725 140.02962029 349.37402344 126.79492188 C343.0845091 115.5495064 336.78947036 104.30725343 330.45703125 93.0859375 C329.66474121 91.68154419 329.66474121 91.68154419 328.85644531 90.2487793 C326.22977562 85.60499948 323.57945298 80.97691606 320.88671875 76.37109375 C320.37197998 75.4898584 319.85724121 74.60862305 319.3269043 73.70068359 C318.35331275 72.03843861 317.37580328 70.3784802 316.39379883 68.72119141 C315.96478271 67.9894873 315.5357666 67.2577832 315.09375 66.50390625 C314.52660278 65.5452063 314.52660278 65.5452063 313.94799805 64.56713867 C313.14453125 62.9609375 313.14453125 62.9609375 313.14453125 60.9609375 C312.48453125 60.9609375 311.82453125 60.9609375 311.14453125 60.9609375 C310.93441406 61.73695313 310.72429688 62.51296875 310.5078125 63.3125 C308.6409829 68.30854254 306.00226141 72.72994608 303.33203125 77.3359375 C298.66129341 85.48887722 294.09124501 93.68367809 289.64453125 101.9609375 C285.45751969 109.73941596 281.19727907 117.46854947 276.83203125 125.1484375 C271.93727591 133.76088845 267.11114978 142.40896759 262.33203125 151.0859375 C261.99731812 151.69357941 261.66260498 152.30122131 261.31774902 152.92727661 C259.61013991 156.02791101 257.90344767 159.12904888 256.19726562 162.23046875 C252.82976898 168.35129974 249.45626926 174.46882092 246.08203125 180.5859375 C245.75102417 181.18607666 245.42001709 181.78621582 245.07897949 182.40454102 C237.18243775 196.71972904 229.23712427 211.007745 221.29003906 225.29492188 C214.55853491 237.39817342 207.83696343 249.50667989 201.15103149 261.63516235 C195.77080783 271.39480097 190.38957398 281.15390982 184.98730469 290.90136719 C184.05415483 292.58593338 183.12274679 294.27146407 182.19140625 295.95703125 C168.12536351 321.31375403 168.12536351 321.31375403 157.08203125 324.9609375 C148.4357101 327.02911617 139.69504038 326.45083872 131.83203125 322.1484375 C127.3367675 318.48950189 124.54760187 314.16031419 121.78125 309.11328125 C121.14936768 307.9648877 120.51748535 306.81649414 119.86645508 305.63330078 C119.18816034 304.38842996 118.5100232 303.14347325 117.83203125 301.8984375 C117.12097293 300.60124288 116.40962367 299.30420771 115.69799805 298.00732422 C110.25149998 288.0639551 104.90894674 278.06579393 99.57861328 268.05981445 C95.22196728 259.90528724 90.71466474 251.8496449 86.12817383 243.82275391 C81.28763521 235.308178 76.69662818 226.66960068 72.11404419 218.01470947 C67.74072696 209.76044813 63.28336453 201.57021961 58.64453125 193.4609375 C53.27609342 184.07621201 48.1721721 174.56785558 43.11376953 165.01416016 C38.74054262 156.7600839 34.28326218 148.5700407 29.64453125 140.4609375 C24.64088616 131.71391703 19.85948316 122.86540507 15.14453125 113.9609375 C9.84765401 103.9591536 4.43457267 94.04216772 -1.17456055 84.21069336 C-6.87824046 74.20570126 -12.37496748 64.08947776 -17.85546875 53.9609375 C-20.51112662 56.36063432 -22.13545428 58.92537939 -23.90234375 62.02734375 C-24.49208984 63.05666016 -25.08183594 64.08597656 -25.68945312 65.14648438 C-26.32173828 66.26087891 -26.95402344 67.37527344 -27.60546875 68.5234375 C-28.27488222 69.69495211 -28.94481301 70.86617126 -29.61523438 72.03710938 C-31.00786872 74.47037584 -32.39826622 76.90489982 -33.78710938 79.34033203 C-36.95576641 84.89251343 -40.15726316 90.42574412 -43.35546875 95.9609375 C-44.605624 98.12751459 -45.85562348 100.29418157 -47.10546875 102.4609375 C-49.60546875 106.79427083 -52.10546875 111.12760417 -54.60546875 115.4609375 C-55.22429932 116.53359863 -55.84312988 117.60625977 -56.48071289 118.71142578 C-57.72982393 120.87650821 -58.97901004 123.04154732 -60.22827148 125.20654297 C-63.36749184 130.64709456 -66.50537438 136.08840966 -69.640625 141.53125 C-76.25769767 153.0154257 -82.90180852 164.48290644 -89.58837891 175.92675781 C-95.75465929 186.48714032 -101.86042825 197.08220516 -107.96435547 207.67871094 C-111.09227023 213.10753692 -114.22405323 218.53413031 -117.35546875 223.9609375 C-118.60548754 226.12759333 -119.85548753 228.29426 -121.10546875 230.4609375 C-123.60546875 234.79427083 -126.10546875 239.12760417 -128.60546875 243.4609375 C-129.22429932 244.53359863 -129.84312988 245.60625977 -130.48071289 246.71142578 C-131.72982393 248.87650821 -132.97901004 251.04154732 -134.22827148 253.20654297 C-137.36749184 258.64709456 -140.50537438 264.08840966 -143.640625 269.53125 C-146.13576337 273.86274327 -148.63473101 278.19199109 -151.13671875 282.51953125 C-153.66964767 286.90072343 -156.18814086 291.28984542 -158.69921875 295.68359375 C-159.93857333 297.83867323 -161.17814834 299.99362598 -162.41796875 302.1484375 C-163.25726929 303.62691162 -163.25726929 303.62691162 -164.11352539 305.13525391 C-173.00886723 320.5356243 -173.00886723 320.5356243 -180.85546875 322.9609375 C-188.5099828 323.76140956 -195.56654517 323.81920548 -201.85546875 318.9609375 C-206.71722183 314.29864096 -209.15807727 309.80958158 -209.41796875 303.0859375 C-209.22595475 294.81104846 -205.92892058 288.89819634 -201.85546875 281.9609375 C-200.83678731 280.19166657 -199.81859454 278.42211424 -198.80078125 276.65234375 C-196.4416489 272.57228355 -194.06127267 268.50541518 -191.66796875 264.4453125 C-187.8551528 257.97448625 -184.10061436 251.47109957 -180.35546875 244.9609375 C-175.54745791 236.61266274 -170.71640993 228.27850225 -165.85546875 219.9609375 C-159.10833761 208.41371264 -152.42207505 196.83191631 -145.74658203 185.24316406 C-141.99518851 178.73222493 -138.23855881 172.22430556 -134.48291016 165.71582031 C-131.34364629 160.27508414 -128.20565378 154.83362273 -125.0703125 149.390625 C-118.45323983 137.9064493 -111.80912898 126.43896856 -105.12255859 114.99511719 C-98.95627821 104.43473468 -92.85050925 93.83966984 -86.74658203 83.24316406 C-82.99600476 76.73364161 -79.24044886 70.2269897 -75.48510742 63.72021484 C-71.69411504 57.15087549 -67.90894624 50.57822276 -64.12744141 44.00341797 C-62.2555353 40.75444425 -60.37647883 37.50969719 -58.49609375 34.265625 C-56.08176971 30.09905193 -53.70013208 25.91614267 -51.33984375 21.71875 C-50.22041728 19.757604 -49.10064211 17.79665699 -47.98046875 15.8359375 C-47.49368652 14.95389648 -47.0069043 14.07185547 -46.50537109 13.16308594 C-42.1319962 5.57904609 -35.82800587 -1.99016174 -27.14453125 -4.63671875 C-17.00641757 -6.41867388 -8.87546127 -4.97025831 0 0 Z " fill="#F2F1F1" transform="translate(211.85546875,150.0390625)"/>
<path d="M0 0 C6.14870492 4.34908397 9.43354442 9.6001838 13 16.0625 C13.5151416 16.97999023 14.0302832 17.89748047 14.56103516 18.84277344 C15.66560425 20.81240638 16.76640423 22.78415695 17.86376953 24.7578125 C19.55629074 27.80133441 21.25900333 30.838926 22.96484375 33.875 C25.90867037 39.11762478 28.8437436 44.36508688 31.77587891 49.61425781 C34.72308535 54.89007149 37.67339729 60.16414478 40.625 65.4375 C41.20491699 66.47358398 41.78483398 67.50966797 42.38232422 68.57714844 C46.25912001 75.49837235 50.15489539 82.40863009 54.0625 89.3125 C61.53171324 102.50894174 68.931864 115.74381721 76.33300781 128.97851562 C82.55444386 140.10220968 88.78447534 151.22062405 95.0625 162.3125 C102.53171324 175.50894174 109.931864 188.74381721 117.33300781 201.97851562 C123.62252215 213.2239311 129.91756089 224.46618407 136.25 235.6875 C136.77819336 236.62376221 137.30638672 237.56002441 137.85058594 238.5246582 C140.47725563 243.16843802 143.12757827 247.79652144 145.8203125 252.40234375 C146.33505127 253.2835791 146.84979004 254.16481445 147.38012695 255.07275391 C148.3537185 256.73499889 149.33122797 258.3949573 150.31323242 260.05224609 C150.95675659 261.14980225 150.95675659 261.14980225 151.61328125 262.26953125 C151.99137939 262.90866455 152.36947754 263.54779785 152.7590332 264.20629883 C153.5625 265.8125 153.5625 265.8125 153.5625 267.8125 C154.2225 267.8125 154.8825 267.8125 155.5625 267.8125 C155.9651709 266.74563965 155.9651709 266.74563965 156.37597656 265.65722656 C157.59348115 262.73822174 159.00366794 260.05696807 160.546875 257.296875 C161.14516113 256.2234082 161.74344727 255.14994141 162.35986328 254.04394531 C163.0042334 252.89506836 163.64860352 251.74619141 164.3125 250.5625 C164.9883653 249.35267691 165.66397995 248.14271377 166.33935547 246.93261719 C168.07499393 243.82450248 169.81421799 240.71840964 171.55432129 237.61279297 C173.10884128 234.83690474 174.65972302 232.0589864 176.2109375 229.28125 C182.33255144 218.32660305 188.48941527 207.39228747 194.6706543 196.47119141 C201.00559291 185.27272892 207.28273063 174.04196073 213.5625 162.8125 C220.90460739 149.6833703 228.26078589 136.56284094 235.67041016 123.47167969 C242.00534304 112.27300486 248.2826417 101.04211975 254.5625 89.8125 C261.89852408 76.69424845 269.24554356 63.58281256 276.65283203 50.50463867 C279.5418172 45.40023624 282.41772458 40.28888905 285.27734375 35.16796875 C285.89867187 34.05550781 286.52 32.94304687 287.16015625 31.796875 C288.34776728 29.66875673 289.53406161 27.53990288 290.71875 25.41015625 C303.47463017 2.55210148 303.47463017 2.55210148 312.5625 -1.1875 C315.4851338 -1.60494669 318.36792258 -1.59717091 321.3164978 -1.57518005 C322.18577648 -1.58056559 323.05505515 -1.58595113 323.95067561 -1.59149987 C326.8570732 -1.60578212 329.76301551 -1.59867501 332.66943359 -1.59155273 C334.75583767 -1.59725619 336.84223862 -1.60422035 338.92863464 -1.61235046 C344.59190398 -1.63030054 350.25501853 -1.62910986 355.91830778 -1.62340808 C360.64744579 -1.62031863 365.37655397 -1.62640604 370.10568774 -1.63244683 C381.26351756 -1.64649679 392.42127084 -1.64492707 403.57910156 -1.63354492 C415.08645376 -1.62206555 426.59357285 -1.63613539 438.10089433 -1.6629414 C447.98387778 -1.6851008 457.86678807 -1.69173515 467.7497946 -1.68586498 C473.65102635 -1.68249452 479.55210871 -1.68491646 485.45331955 -1.70211601 C491.00362975 -1.71758654 496.5535948 -1.7136281 502.10389137 -1.69481087 C504.1388079 -1.6911252 506.17375 -1.69423279 508.20864296 -1.70469666 C510.99100385 -1.71790974 513.7722227 -1.70635611 516.55453491 -1.68870544 C517.75659972 -1.70311295 517.75659972 -1.70311295 518.98294866 -1.71781152 C525.46832052 -1.63341741 530.83624725 0.21256012 535.5859375 4.7421875 C540.05803262 11.17890245 542.52976123 16.77214103 541.5625 24.8125 C540.08820019 30.94005858 537.26367427 36.40208953 531.83459282 39.93780923 C526.79165436 42.60101169 522.78499211 43.39061755 517.12158203 43.33148193 C516.31028682 43.33898319 515.4989916 43.34648444 514.66311169 43.354213 C511.9652465 43.37438997 509.26822979 43.36640737 506.5703125 43.35839844 C504.62826206 43.36713889 502.68621882 43.37762632 500.7441864 43.38972473 C495.48650586 43.41754734 490.22906075 43.42099023 484.97131729 43.42000484 C479.47130328 43.42313714 473.97139481 43.44876199 468.47143555 43.47198486 C458.06295057 43.51252404 447.65452821 43.53288072 437.24597645 43.54595876 C425.39348144 43.56183582 413.54109289 43.60025447 401.68865967 43.64055204 C377.31330885 43.72292254 352.937961 43.7770325 328.5625 43.8125 C328.14247208 44.56953217 327.72244415 45.32656433 327.28968811 46.10653687 C325.69822914 48.97440044 324.10638477 51.84204943 322.51429749 54.70956421 C321.83147001 55.9395839 321.14878662 57.1696836 320.46626282 58.39987183 C316.01030338 66.43105448 311.52767003 74.44645396 307 82.4375 C306.44494781 83.41720764 305.88989563 84.39691528 305.31802368 85.40631104 C304.8199118 86.28543152 304.32179993 87.164552 303.80859375 88.0703125 C300.37279468 94.13963222 296.96636307 100.22522772 293.5625 106.3125 C289.08220664 114.32375156 284.5844389 122.32468091 280.0625 130.3125 C273.18877603 142.45660093 266.37348063 154.63312923 259.5625 166.8125 C252.22039261 179.9416297 244.86421411 193.06215906 237.45458984 206.15332031 C231.11965696 217.35199514 224.8423583 228.58288025 218.5625 239.8125 C210.67689473 253.91351063 202.7777021 268.006261 194.8125 282.0625 C192.52798433 286.09662036 190.25981083 290.13949103 188 294.1875 C187.41420166 295.23341309 186.82840332 296.27932617 186.22485352 297.35693359 C185.10452097 299.35783326 183.98762078 301.36066003 182.87475586 303.36572266 C179.23064649 309.86101288 176.16255864 315.2392953 169.5625 319.0625 C168.716875 319.56265625 167.87125 320.0628125 167 320.578125 C160.54551794 323.84674092 152.6493636 323.90045128 145.73046875 322.05859375 C131.61100704 316.66059864 126.39709451 303.76422917 119.5 291.1875 C118.51467381 289.40100216 117.52801923 287.61524173 116.54138184 285.82946777 C115.87015142 284.61428259 115.1993348 283.39886876 114.52893066 282.18322754 C111.1898072 276.12915769 107.81767183 270.09374046 104.4375 264.0625 C103.86185303 263.03495605 103.28620605 262.00741211 102.69311523 260.94873047 C98.29918399 253.1121123 93.87975502 245.29006398 89.4543457 237.47119141 C82.52406029 225.22031639 75.66192168 212.93126728 68.79199219 200.64648438 C62.57055614 189.52279032 56.34052466 178.40437595 50.0625 167.3125 C42.59328676 154.11605826 35.193136 140.88118279 27.79199219 127.64648438 C21.50247785 116.4010689 15.20743911 105.15881593 8.875 93.9375 C8.08270996 92.53310669 8.08270996 92.53310669 7.27441406 91.1003418 C4.64774437 86.45656198 1.99742173 81.82847856 -0.6953125 77.22265625 C-1.21005127 76.3414209 -1.72479004 75.46018555 -2.25512695 74.55224609 C-3.2287185 72.89000111 -4.20622797 71.2300427 -5.18823242 69.57275391 C-5.61724854 68.8410498 -6.04626465 68.1093457 -6.48828125 67.35546875 C-6.86637939 66.71633545 -7.24447754 66.07720215 -7.6340332 65.41870117 C-8.4375 63.8125 -8.4375 63.8125 -8.4375 61.8125 C-9.0975 61.8125 -9.7575 61.8125 -10.4375 61.8125 C-10.75267578 62.95912109 -10.75267578 62.95912109 -11.07421875 64.12890625 C-12.98016266 69.27877761 -15.60723691 73.94483623 -18.25 78.75 C-18.8289502 79.8112207 -19.40790039 80.87244141 -20.00439453 81.96582031 C-24.39211835 89.98128331 -28.88994558 97.93175371 -33.41259766 105.87158203 C-37.77237694 113.55832077 -41.96878589 121.32715811 -46.125 129.125 C-51.32442916 138.87929021 -56.60211568 148.58153123 -61.99707031 158.22900391 C-65.09739544 163.78962093 -68.17329443 169.36379066 -71.25 174.9375 C-71.59338409 175.55943237 -71.93676819 176.18136475 -72.29055786 176.82214355 C-77.55197549 186.35511392 -82.75713897 195.91732839 -87.93164062 205.49780273 C-91.78885719 212.63305443 -95.70683062 219.731905 -99.65625 226.81640625 C-103.2033502 233.18133343 -106.72811612 239.55859717 -110.25 245.9375 C-110.59320282 246.55906982 -110.93640564 247.18063965 -111.29000854 247.82104492 C-116.00278229 256.35999951 -120.67719316 264.91867194 -125.3125 273.5 C-130.26356605 282.66449808 -135.24986355 291.80701988 -140.35595703 300.88623047 C-141.06063369 302.14128664 -141.76228694 303.39804666 -142.46044922 304.65673828 C-150.90000521 319.86318362 -150.90000521 319.86318362 -159.4375 322.8125 C-165.94743717 323.46618007 -171.91404926 323.71933101 -177.4375 319.8125 C-182.93255116 315.08420016 -185.55672911 310.67805502 -186.125 303.4375 C-185.85156841 294.84543823 -181.58105118 288.08569024 -177.4375 280.8125 C-176.47114649 279.09516893 -175.50501083 277.37771526 -174.5390625 275.66015625 C-172.93589989 272.81874787 -171.32805465 269.98029229 -169.71020508 267.1472168 C-165.3163368 259.44026795 -161.10077407 251.64551023 -156.9375 243.8125 C-152.38276696 235.24706057 -147.74829049 226.73749595 -142.9375 218.3125 C-138.06719765 209.78175399 -133.36946846 201.16817669 -128.75 192.5 C-123.55072237 182.74563043 -118.27288278 173.04346602 -112.87792969 163.39599609 C-109.77760456 157.83537907 -106.70170557 152.26120934 -103.625 146.6875 C-103.28161591 146.06556763 -102.93823181 145.44363525 -102.58444214 144.80285645 C-97.32302451 135.26988608 -92.11786103 125.70767161 -86.94335938 116.12719727 C-83.08614281 108.99194557 -79.16816938 101.893095 -75.21875 94.80859375 C-71.6716498 88.44366657 -68.14688388 82.06640283 -64.625 75.6875 C-64.28179718 75.06593018 -63.93859436 74.44436035 -63.58499146 73.80395508 C-58.87221771 65.26500049 -54.19780684 56.70632806 -49.5625 48.125 C-44.61143395 38.96050192 -39.62513645 29.81798012 -34.51904297 20.73876953 C-33.81436631 19.48371336 -33.11271306 18.22695334 -32.41455078 16.96826172 C-25.03510439 3.67192856 -16.28159291 -5.62455028 0 0 Z " fill="#F2F2F2" transform="translate(1353.4375,149.1875)"/>
<path d="M0 0 C1.03688965 0.24943359 1.03688965 0.24943359 2.09472656 0.50390625 C24.73367082 6.10401156 44.4971101 16.54314327 61 33 C61.85207031 33.82886719 62.70414063 34.65773437 63.58203125 35.51171875 C87.56532387 60.17485274 95.07651046 94.59771856 95 128 C93.57909112 179.65633303 70.0817962 233.22631367 34.46386719 270.46875 C33.47256414 271.50568341 32.48636667 272.54751769 31.50488281 273.59375 C7.43330657 299.18806493 -27.52162091 319.51827087 -63 323 C-63.65693848 323.06558105 -64.31387695 323.13116211 -64.99072266 323.19873047 C-99.73328941 326.43619423 -138.44107871 318.30563221 -166 296 C-191.16684917 275.07258943 -205.85533839 246.32579777 -209.3359375 213.8671875 C-213.96328018 160.96540496 -194.25219903 103.06341536 -160.26269531 62.49169922 C-159.84600586 61.99943848 -159.42931641 61.50717773 -159 61 C-158.28585937 60.15566406 -157.57171875 59.31132812 -156.8359375 58.44140625 C-154.61126343 55.90427796 -152.32470855 53.44593568 -150 51 C-149.47986328 50.44731445 -148.95972656 49.89462891 -148.42382812 49.32519531 C-125.54667642 25.16266448 -98.29462807 8.24586383 -66 0 C-65.32630371 -0.17934082 -64.65260742 -0.35868164 -63.95849609 -0.54345703 C-44.13820563 -5.63115331 -19.77204045 -4.9212134 0 0 Z M-120 80 C-150.62892012 116.46121983 -169.3606238 165.26616115 -166 213 C-163.77951619 233.31984795 -155.09402111 253.79240659 -139 267 C-135.44739875 269.55209458 -131.78826753 271.81611206 -128 274 C-126.88238281 274.67869141 -126.88238281 274.67869141 -125.7421875 275.37109375 C-105.80737021 286.51931039 -79.73749862 287.69022141 -58 282 C-41.37516798 277.14358014 -26.01501893 269.50988069 -13 258 C-11.73929688 256.90171875 -11.73929688 256.90171875 -10.453125 255.78125 C-7.93596202 253.55394215 -5.46047434 251.28966455 -3 249 C-2.00033203 248.08154297 -2.00033203 248.08154297 -0.98046875 247.14453125 C9.99076751 236.66487788 18.36469051 224.01784407 26 211 C26.3515918 210.41202637 26.70318359 209.82405273 27.06542969 209.21826172 C36.0291653 194.09142176 41.76883361 177.19775559 46.4375 160.3125 C46.78965576 159.04200806 46.78965576 159.04200806 47.14892578 157.74584961 C54.07310945 131.42523877 54.13899449 101.76205932 42 77 C41.62101562 76.21496094 41.24203125 75.42992187 40.8515625 74.62109375 C31.76558232 57.08942058 16.56567171 46.26112687 -1.64453125 39.68359375 C-46.98824655 25.89218315 -89.66372059 46.02300299 -120 80 Z " fill="#F2F2F2" transform="translate(1064,157)"/>
<path d="M0 0 C6.15633121 4.36719148 9.22542652 11.73483328 12.67773438 18.22802734 C14.67249494 21.94463016 16.72282762 25.62966827 18.77037048 29.31738281 C25.69997871 41.80075912 32.52464857 54.33707536 39.27392578 66.91894531 C42.92335569 73.71544599 46.62839099 80.47671742 50.39477539 87.20898438 C53.80885306 93.32341939 57.13495261 99.48363397 60.45703125 105.6484375 C64.69863671 113.51541049 69.02707025 121.32359608 73.45703125 129.0859375 C79.30760502 139.34818435 84.87178957 149.75034018 90.40673828 160.18457031 C94.36118391 167.6363996 98.36889477 175.05252714 102.49560547 182.41064453 C105.88099659 188.45528082 109.17102086 194.54930763 112.45703125 200.6484375 C116.69856416 208.51545637 121.02729376 216.32346714 125.45703125 224.0859375 C130.67051136 233.23625833 135.69211705 242.48015559 140.64453125 251.7734375 C140.98400787 252.40969055 141.3234845 253.0459436 141.67324829 253.70147705 C144.76459281 259.50069688 147.84078731 265.30391579 150.75390625 271.1953125 C153.76157049 277.26852855 157.08583419 283.16120033 160.390625 289.07617188 C160.86113281 289.92373047 161.33164062 290.77128906 161.81640625 291.64453125 C162.24018555 292.40306396 162.66396484 293.16159668 163.10058594 293.94311523 C166.05262836 299.64906252 165.99512794 306.00032147 164.14453125 312.0859375 C161.81599063 317.63008184 157.05157584 321.55656813 151.71875 324.1328125 C145.85443181 326.01936099 139.40239355 325.90118788 133.76953125 323.3359375 C125.68880282 319.17098056 121.87567873 309.41994523 117.76953125 301.8359375 C117.06321608 300.54319906 116.35642048 299.25072302 115.64916992 297.95849609 C110.22472132 288.02847574 104.89848166 278.04575682 99.57836914 268.05957031 C95.22198178 259.90502757 90.71460982 251.8495488 86.12817383 243.82275391 C81.28763521 235.308178 76.69662818 226.66960068 72.11404419 218.01470947 C67.74072696 209.76044813 63.28336453 201.57021961 58.64453125 193.4609375 C53.27609342 184.07621201 48.1721721 174.56785558 43.11376953 165.01416016 C38.74054262 156.7600839 34.28326218 148.5700407 29.64453125 140.4609375 C24.64088616 131.71391703 19.85948316 122.86540507 15.14453125 113.9609375 C9.84765401 103.9591536 4.43457267 94.04216772 -1.17456055 84.21069336 C-6.87824046 74.20570126 -12.37496748 64.08947776 -17.85546875 53.9609375 C-20.51112662 56.36063432 -22.13545428 58.92537939 -23.90234375 62.02734375 C-24.49208984 63.05666016 -25.08183594 64.08597656 -25.68945312 65.14648438 C-26.32173828 66.26087891 -26.95402344 67.37527344 -27.60546875 68.5234375 C-28.27488222 69.69495211 -28.94481301 70.86617126 -29.61523438 72.03710938 C-31.00786872 74.47037584 -32.39826622 76.90489982 -33.78710938 79.34033203 C-36.95576641 84.89251343 -40.15726316 90.42574412 -43.35546875 95.9609375 C-44.605624 98.12751459 -45.85562348 100.29418157 -47.10546875 102.4609375 C-49.60546875 106.79427083 -52.10546875 111.12760417 -54.60546875 115.4609375 C-55.22429932 116.53359863 -55.84312988 117.60625977 -56.48071289 118.71142578 C-57.72982393 120.87650821 -58.97901004 123.04154732 -60.22827148 125.20654297 C-63.36749184 130.64709456 -66.50537438 136.08840966 -69.640625 141.53125 C-76.25769767 153.0154257 -82.90180852 164.48290644 -89.58837891 175.92675781 C-95.75465929 186.48714032 -101.86042825 197.08220516 -107.96435547 207.67871094 C-111.09227023 213.10753692 -114.22405323 218.53413031 -117.35546875 223.9609375 C-118.60548754 226.12759333 -119.85548753 228.29426 -121.10546875 230.4609375 C-123.60546875 234.79427083 -126.10546875 239.12760417 -128.60546875 243.4609375 C-129.22429932 244.53359863 -129.84312988 245.60625977 -130.48071289 246.71142578 C-131.72982393 248.87650821 -132.97901004 251.04154732 -134.22827148 253.20654297 C-137.36749184 258.64709456 -140.50537438 264.08840966 -143.640625 269.53125 C-146.13576337 273.86274327 -148.63473101 278.19199109 -151.13671875 282.51953125 C-153.66964767 286.90072343 -156.18814086 291.28984542 -158.69921875 295.68359375 C-159.93857333 297.83867323 -161.17814834 299.99362598 -162.41796875 302.1484375 C-163.25726929 303.62691162 -163.25726929 303.62691162 -164.11352539 305.13525391 C-173.00886723 320.5356243 -173.00886723 320.5356243 -180.85546875 322.9609375 C-188.5099828 323.76140956 -195.56654517 323.81920548 -201.85546875 318.9609375 C-206.71722183 314.29864096 -209.15807727 309.80958158 -209.41796875 303.0859375 C-209.22595475 294.81104846 -205.92892058 288.89819634 -201.85546875 281.9609375 C-200.83678731 280.19166657 -199.81859454 278.42211424 -198.80078125 276.65234375 C-196.4416489 272.57228355 -194.06127267 268.50541518 -191.66796875 264.4453125 C-187.8551528 257.97448625 -184.10061436 251.47109957 -180.35546875 244.9609375 C-175.54745791 236.61266274 -170.71640993 228.27850225 -165.85546875 219.9609375 C-159.10833761 208.41371264 -152.42207505 196.83191631 -145.74658203 185.24316406 C-141.99518851 178.73222493 -138.23855881 172.22430556 -134.48291016 165.71582031 C-131.34364629 160.27508414 -128.20565378 154.83362273 -125.0703125 149.390625 C-118.45323983 137.9064493 -111.80912898 126.43896856 -105.12255859 114.99511719 C-98.95627821 104.43473468 -92.85050925 93.83966984 -86.74658203 83.24316406 C-82.99600476 76.73364161 -79.24044886 70.2269897 -75.48510742 63.72021484 C-71.69411504 57.15087549 -67.90894624 50.57822276 -64.12744141 44.00341797 C-62.2555353 40.75444425 -60.37647883 37.50969719 -58.49609375 34.265625 C-56.08176971 30.09905193 -53.70013208 25.91614267 -51.33984375 21.71875 C-50.22041728 19.757604 -49.10064211 17.79665699 -47.98046875 15.8359375 C-47.49368652 14.95389648 -47.0069043 14.07185547 -46.50537109 13.16308594 C-42.1319962 5.57904609 -35.82800587 -1.99016174 -27.14453125 -4.63671875 C-17.00641757 -6.41867388 -8.87546127 -4.97025831 0 0 Z " fill="#F81616" transform="translate(211.85546875,150.0390625)"/>
<path d="M0 0 C2.45141969 -0.05262764 4.90502007 -0.03394795 7.35583496 0.04177856 C8.71350505 0.03725301 10.07116618 0.02706701 11.42875671 0.01168823 C15.0980777 -0.01329756 18.76212511 0.0422702 22.43066216 0.11417532 C26.27983112 0.1771401 30.12892199 0.16981054 33.97851562 0.17144775 C40.44194351 0.18437623 46.9033727 0.24648279 53.36608887 0.34158325 C60.82361762 0.45105126 68.27940483 0.49852997 75.73769045 0.50917804 C83.69793818 0.52068027 91.65757358 0.57038756 99.6175518 0.63509226 C101.90212332 0.65159528 104.18665597 0.66182505 106.4712677 0.67095566 C110.07024937 0.68773939 113.66804134 0.73077565 117.26650429 0.79360199 C119.20656793 0.8220429 121.14693555 0.82667117 123.08720398 0.83044434 C131.18680585 1.00823596 136.53100196 2.3136392 142.32784271 8.10980034 C147.57749382 14.08284182 148.27213054 18.52319497 148.12341309 26.3352356 C147.5151634 32.76420378 145.06686532 36.71044214 140.31481934 40.97195435 C135.60435505 44.80455937 132.24441766 45.8468467 126.10772705 45.83746338 C125.43460676 45.83917223 124.76148648 45.84088108 124.06796861 45.84264171 C121.81388065 45.84593433 119.56009078 45.83493687 117.30603027 45.82400513 C115.68969734 45.82344096 114.07336389 45.82375767 112.45703125 45.82489014 C108.06893347 45.82546445 103.68094482 45.81369743 99.29287243 45.79974222 C94.70711506 45.78724795 90.12135526 45.78606539 85.5355835 45.78369141 C76.85169737 45.77747281 68.16786155 45.76105684 59.48399758 45.74099243 C49.59776382 45.71864526 39.71152767 45.70764297 29.82527494 45.69760156 C9.48842832 45.67669095 -10.848373 45.64150758 -31.18518066 45.59695435 C-29.71191407 41.81796585 -28.0226203 38.39263003 -25.98986816 34.87820435 C-25.35564941 33.7799231 -24.72143066 32.68164185 -24.06799316 31.55007935 C-23.40541504 30.4105481 -22.74283691 29.27101685 -22.06018066 28.09695435 C-21.42080566 26.9883606 -20.78143066 25.87976685 -20.12268066 24.73757935 C-16.48064863 18.44812643 -16.48064863 18.44812643 -15.40912437 16.71613121 C-14.06833292 14.46138287 -14.06833292 14.46138287 -12.69117165 11.43842506 C-7.23158565 0.88406061 -7.23158565 0.88406061 0 0 Z " fill="#F2F2F2" transform="translate(1617.1851806640625,418.4030456542969)"/>
<path d="M0 0 C2.54771179 0.01156606 5.09545101 0.0180923 7.64318848 0.01980591 C12.97713312 0.03672197 18.30817465 0.09476777 23.64111328 0.18994141 C29.78995416 0.29940643 35.93668271 0.34688808 42.08644152 0.3575362 C48.02300021 0.36793845 53.95899083 0.40812702 59.89530945 0.46472549 C62.41179672 0.48813356 64.92833762 0.50637816 67.44490051 0.51931381 C70.96614233 0.54436331 74.48522863 0.60283795 78.00585938 0.67138672 C79.03986374 0.67383392 80.0738681 0.67628113 81.13920593 0.67880249 C88.53281639 0.87498708 93.5756178 2.69893119 98.86537933 7.95815849 C104.09658392 13.94806011 104.80120247 18.36413257 104.65234375 26.18359375 C104.04409407 32.61256193 101.59579598 36.55880029 96.84375 40.8203125 C92.47743558 44.37290469 89.23317419 45.69601039 83.54779053 45.68582153 C82.3643103 45.68857086 81.18083008 45.69132019 79.96148682 45.69415283 C78.66676453 45.68696228 77.37204224 45.67977173 76.03808594 45.67236328 C74.65820321 45.67179901 73.27831988 45.67211603 71.8984375 45.67324829 C68.15493947 45.6738222 64.41156956 45.6620617 60.66810131 45.64810038 C56.75499813 45.63559943 52.84189204 45.63442302 48.92877197 45.63204956 C41.51985649 45.62583292 34.11100002 45.60941962 26.70211053 45.58935058 C18.26687822 45.5669973 9.83164309 45.55599959 1.39638853 45.54595971 C-15.95452511 45.52505355 -33.30538132 45.489874 -50.65625 45.4453125 C-49.18298341 41.66632401 -47.49368963 38.24098818 -45.4609375 34.7265625 C-44.82671875 33.62828125 -44.1925 32.53 -43.5390625 31.3984375 C-42.87648438 30.25890625 -42.21390625 29.119375 -41.53125 27.9453125 C-40.891875 26.83671875 -40.2525 25.728125 -39.59375 24.5859375 C-35.93505032 18.2677011 -35.93505032 18.2677011 -34.83966064 16.57662964 C-33.50922678 14.32555089 -33.50922678 14.32555089 -32.52703857 11.17752075 C-26.51033667 -2.96672832 -13.4976791 -0.29458426 0 0 Z " fill="#F2F2F2" transform="translate(1712.65625,286.5546875)"/>
</svg>
