<?xml version="1.0" encoding="UTF-8"?>
<svg version="1.1" xmlns="http://www.w3.org/2000/svg" width="225" height="221">
<path d="M0 0 C74.25 0 148.5 0 225 0 C225 72.93 225 145.86 225 221 C150.75 221 76.5 221 0 221 C0 148.07 0 75.14 0 0 Z " fill="#FEFDFE" transform="translate(0,0)"/>
<path d="M0 0 C16.5 0 33 0 50 0 C50.09060406 15.01309301 50.16415764 30.02604419 50.20724869 45.03934669 C50.22779633 52.0116829 50.25576574 58.98383605 50.30175781 65.95605469 C50.34617553 72.69286977 50.36918176 79.42945606 50.37950897 86.1664238 C50.38686248 88.72826492 50.40122154 91.29009645 50.42292023 93.85185623 C50.63031306 119.36663752 50.63031306 119.36663752 46 131 C45.62200256 132.04684967 45.24400513 133.09369934 44.85455322 134.17227173 C38.73546735 150.77709743 27.69098533 163.73739413 13.1875 173.625 C12.25429932 174.26453613 12.25429932 174.26453613 11.30224609 174.91699219 C7.2496837 177.552081 4.99628982 178.16728503 0 179 C0 119.93 0 60.86 0 0 Z " fill="#EA374D" transform="translate(141,19)"/>
<path d="M0 0 C20.46 0 40.92 0 62 0 C55.2544764 12.36679327 55.2544764 12.36679327 52.00390625 17.171875 C51.28879883 18.2355127 50.57369141 19.29915039 49.83691406 20.39501953 C49.46667114 20.94111877 49.09642822 21.48721802 48.71496582 22.04986572 C46.70243599 25.01877889 44.70603549 27.99853355 42.70703125 30.9765625 C42.30386688 31.57624847 41.90070251 32.17593445 41.48532104 32.79379272 C37.85277696 38.20261627 34.29347697 43.65745417 30.75 49.125 C24.76489139 58.33574608 18.71967298 67.50590972 12.64074707 76.65496826 C11.63229498 78.17357512 10.62504659 79.692982 9.61901855 81.2131958 C8.21035527 83.34103106 6.79722629 85.46582808 5.3828125 87.58984375 C4.95439056 88.23862991 4.52596863 88.88741608 4.08456421 89.55586243 C3.08256624 91.05508058 2.0451644 92.53054895 1 94 C0.67 94 0.34 94 0 94 C0 62.98 0 31.96 0 0 Z " fill="#EA374D" transform="translate(28,19)"/>
<path d="M0 0 C0.33 0 0.66 0 1 0 C1 32.67 1 65.34 1 99 C-15.21615684 96.68340617 -30.82114097 88.09094167 -42 76 C-43.36833447 74.02378175 -44.70932634 72.02779173 -46 70 C-37.69477583 56.31823597 -28.7627551 43.05412831 -19.85404968 29.76220703 C-16.94957224 25.42638995 -14.06168368 21.07993152 -11.18359375 16.7265625 C-10.43643782 15.59825621 -9.68920676 14.46999966 -8.94189453 13.34179688 C-7.54581378 11.23278977 -6.15217044 9.12216673 -4.76123047 7.00976562 C-4.14521973 6.08099609 -3.52920898 5.15222656 -2.89453125 4.1953125 C-2.35675049 3.38078613 -1.81896973 2.56625977 -1.26489258 1.72705078 C-0.84747803 1.15712402 -0.43006348 0.58719727 0 0 Z " fill="#EA384E" transform="translate(92,104)"/>
<path d="M0 0 C0.33 0 0.66 0 1 0 C1 32.67 1 65.34 1 99 C-6 98 -6 98 -8 96 C-5.69 96.33 -3.38 96.66 -1 97 C-1.00222061 95.7995253 -1.00444122 94.5990506 -1.00672913 93.36219788 C-1.02695882 82.07522705 -1.0419713 70.78825987 -1.05181217 59.50127506 C-1.05704144 53.69786387 -1.06413987 47.89446725 -1.07543945 42.09106445 C-1.08626678 36.49549147 -1.0922765 30.89993255 -1.09487724 25.3043499 C-1.09673177 23.16441056 -1.10035291 21.02447204 -1.10573006 18.88453865 C-1.11293844 15.89835034 -1.11399103 12.91222093 -1.11352539 9.92602539 C-1.11712067 9.03194977 -1.12071594 8.13787415 -1.12442017 7.21670532 C-1.11405216 1.11405216 -1.11405216 1.11405216 0 0 Z " fill="#EC5264" transform="translate(92,104)"/>
</svg>
