<svg version="1.1" id="Layer_1" xmlns="http://www.w3.org/2000/svg" xmlns:xlink="http://www.w3.org/1999/xlink" x="0px" y="0px"
	 width="100%" viewBox="0 0 1200 523" enable-background="new 0 0 1200 523" xml:space="preserve">
<path fill="#FFFFFF" opacity="1.000000" stroke="none" 
	d="
M1128.000000,524.000000 
	C752.000183,524.000000 376.500305,524.000000 1.000353,524.000000 
	C1.000235,349.666901 1.000235,175.333786 1.000118,1.000516 
	C400.999603,1.000344 800.999207,1.000344 1200.999023,1.000172 
	C1200.999390,175.332870 1200.999390,349.665741 1200.999756,523.999268 
	C1176.833374,524.000000 1152.666626,524.000000 1128.000000,524.000000 
M1038.744019,317.564484 
	C1044.315674,317.564484 1049.887451,317.564484 1055.605225,317.564484 
	C1055.605225,302.910919 1055.605225,288.978180 1055.885620,274.282959 
	C1056.440552,272.035828 1056.705933,269.664856 1057.604370,267.564667 
	C1060.371704,261.095520 1067.191650,257.377350 1074.256958,258.206238 
	C1080.348633,258.920929 1084.216064,262.819183 1085.488403,270.406067 
	C1086.171143,274.478058 1086.114746,278.696960 1086.143433,282.851257 
	C1086.222656,294.300385 1086.170776,305.750458 1086.170776,317.400269 
	C1092.551270,317.400269 1098.439453,317.400269 1104.732056,317.400269 
	C1104.732056,304.812866 1104.816528,292.514587 1104.696411,280.218292 
	C1104.636353,274.067505 1104.729370,267.841278 1103.820190,261.789276 
	C1102.286011,251.576004 1096.057007,244.632614 1086.025269,242.535233 
	C1075.498047,240.334259 1065.075317,240.675797 1057.437744,251.264297 
	C1056.963867,252.178024 1056.490112,253.091751 1055.438721,254.367523 
	C1055.256104,254.502731 1055.073486,254.637924 1054.812012,253.757492 
	C1054.812012,250.329773 1054.812012,246.902054 1054.812012,243.443115 
	C1048.543701,243.443115 1042.956421,243.443115 1037.155029,243.443115 
	C1037.155029,267.467804 1037.155029,291.240356 1037.001465,315.706696 
	C1037.300415,316.238495 1037.599365,316.770325 1038.744019,317.564484 
M716.683228,317.562927 
	C720.837463,317.482941 724.991699,317.402954 729.783752,317.638763 
	C730.515503,316.363342 731.870605,315.094330 731.883728,313.811554 
	C732.033997,299.167786 731.979797,284.521942 731.979919,269.876648 
	C731.980042,248.574417 731.986755,227.272171 731.969666,205.969955 
	C731.967896,203.749649 732.713501,201.051895 728.898376,201.097076 
	C724.074097,201.154221 719.247192,201.016357 714.424316,201.107590 
	C714.115479,201.113434 713.830261,202.365326 713.312744,203.945938 
	C713.303955,222.368622 713.262939,240.791367 713.295410,259.213959 
	C713.328186,277.795807 713.434082,296.377533 713.252014,315.525177 
	C714.126465,316.123840 715.000854,316.722534 716.683228,317.562927 
M862.077576,219.951965 
	C857.687927,219.951965 853.298279,219.951965 848.496338,219.951965 
	C848.496338,227.536484 848.496338,234.397232 848.496338,241.760254 
	C843.177856,241.760254 838.297852,241.760254 832.945190,241.760254 
	C833.339478,247.136688 833.693115,251.958954 834.482178,257.060272 
	C834.649963,257.020874 834.817810,256.981506 835.900696,257.131104 
	C840.141724,257.131104 844.382751,257.131104 848.804016,257.131104 
	C848.804016,263.197540 848.698181,268.517395 848.827209,273.831604 
	C849.057312,283.304474 848.865173,292.836365 849.904785,302.226776 
	C850.889465,311.120392 856.697510,316.157501 865.590881,316.917389 
	C870.687561,317.352844 875.859802,316.904480 881.795654,316.878510 
	C883.811829,316.266846 885.827942,315.655182 887.718140,315.081726 
	C887.718140,309.831909 887.718140,304.941833 887.718140,300.975555 
	C882.326965,300.975555 877.163635,300.975555 871.863708,300.767731 
	C871.863708,300.767731 871.616760,300.797058 871.159668,300.181702 
	C870.030151,297.867584 868.151917,295.626465 867.917725,293.225067 
	C867.323059,287.126221 867.315613,280.954620 867.353943,274.813904 
	C867.390930,268.885040 867.778992,262.958435 868.943726,257.117706 
	C874.629089,257.072083 880.314392,257.026428 886.876770,257.084351 
	C887.366516,252.036209 887.856323,246.988052 888.415161,241.228607 
	C880.803467,241.228607 874.109497,241.228607 867.172974,241.228607 
	C867.172974,233.803040 867.172974,227.033325 867.172974,220.113922 
	C865.593506,220.113922 864.296143,220.113922 862.077576,219.951965 
M345.777802,316.907806 
	C347.810242,316.285889 349.842682,315.664001 351.499481,315.157043 
	C351.499481,309.789246 351.499481,304.930389 351.499481,301.246643 
	C346.413208,301.246643 341.696838,301.246643 336.379272,300.915405 
	C334.813080,298.905518 333.246887,296.895630 331.680359,294.058563 
	C331.472351,292.698944 331.264343,291.339325 331.290649,289.070404 
	C331.290649,278.472382 331.290649,267.874329 331.290649,256.993622 
	C338.484741,256.993622 344.935730,256.993622 351.598450,256.993622 
	C351.598450,251.786850 351.598450,246.874069 351.598450,241.437988 
	C344.871704,241.437988 338.295074,241.437988 331.297852,241.437988 
	C331.297852,235.298141 331.494507,229.661514 331.161285,224.056381 
	C331.076660,222.633560 329.397461,220.221512 328.294495,220.128952 
	C323.238007,219.704681 318.126007,219.942337 312.739044,219.942337 
	C312.739044,227.301575 312.739044,234.090408 312.739044,241.466537 
	C307.552765,241.466537 302.655853,241.466537 297.696198,241.466537 
	C297.696198,246.989792 297.696198,251.916748 297.696198,257.143768 
	C302.733185,257.143768 307.532104,257.143768 312.790466,257.143768 
	C312.790466,259.233368 312.779266,261.023621 312.792236,262.813690 
	C312.876831,274.476166 312.686066,286.149384 313.131653,297.798187 
	C313.602142,310.098267 319.407410,316.048096 331.566925,317.084900 
	C336.000519,317.462921 340.511139,316.936829 345.777802,316.907806 
M801.883850,287.768188 
	C801.377136,289.167816 800.950989,290.603119 800.349976,291.960999 
	C797.481262,298.442810 791.583252,300.695129 785.363037,301.800049 
	C780.772400,302.615540 774.651978,297.251526 773.297729,291.289398 
	C772.281982,286.817200 772.029114,282.108032 771.961243,277.496613 
	C771.786316,265.616516 771.902710,253.732162 771.902710,241.454117 
	C766.114563,241.454117 760.827271,241.351700 755.553223,241.568741 
	C754.795105,241.599945 754.100281,243.170700 753.194519,244.946640 
	C753.275879,259.719879 753.357239,274.493134 753.285828,290.129425 
	C753.536987,292.269775 753.683594,294.428528 754.055725,296.547638 
	C757.448425,315.868347 780.902222,324.652344 796.776123,312.095398 
	C798.183716,310.396912 799.591309,308.698425 801.239319,306.886108 
	C801.239319,306.886108 801.259338,306.620941 801.779846,306.251007 
	C801.879272,305.842682 801.978760,305.434326 802.642029,304.727173 
	C802.831604,304.630707 803.021179,304.534210 803.304932,305.424591 
	C803.304932,308.828857 803.304932,312.233124 803.304932,315.518921 
	C809.635437,315.518921 815.220581,315.518921 820.875366,315.518921 
	C820.875366,291.471039 820.875366,267.731598 820.909119,243.215759 
	C820.556091,242.692551 820.215881,241.723694 819.848022,241.713104 
	C814.472839,241.558182 809.093018,241.484116 803.718079,241.585541 
	C803.379272,241.591934 803.070862,243.205444 802.516479,244.574265 
	C802.587158,244.744812 802.657837,244.915344 802.410706,245.966202 
	C802.431702,258.581512 802.452698,271.196838 802.224182,284.652954 
	C802.213806,285.526855 802.203430,286.400787 801.883850,287.768188 
M436.862610,285.012787 
	C436.911560,280.673859 436.960510,276.334961 437.105469,271.169342 
	C435.711914,260.884033 431.653503,252.111572 423.174988,245.629181 
	C414.295380,238.840149 404.064026,239.424469 394.062439,240.694244 
	C383.355438,242.053574 374.659271,247.699493 368.905518,256.989136 
	C360.492981,270.571381 360.088470,284.741119 367.958435,298.572144 
	C376.040680,312.776276 389.347443,317.893494 405.045685,317.391479 
	C416.894897,317.012573 426.841187,312.445099 434.298523,302.644684 
	C429.719421,299.187775 425.413605,295.937195 421.152039,292.720032 
	C406.346344,309.505066 386.733856,303.809814 381.775360,288.168304 
	C381.775116,287.104950 381.774872,286.041626 382.738739,285.038025 
	C400.493469,284.995819 418.248169,284.953644 436.862610,285.012787 
M548.113342,251.581268 
	C548.113342,234.657303 548.113342,217.733337 548.113342,200.724716 
	C542.770630,200.724716 537.945068,200.652130 533.125061,200.782440 
	C532.089172,200.810425 531.073181,201.571686 529.876465,202.919388 
	C529.866760,216.372055 529.828857,229.824753 529.853516,243.277359 
	C529.898010,267.519836 529.979919,291.762238 530.026917,316.842773 
	C535.955627,317.200562 541.884399,317.558350 548.695129,317.969391 
	C548.695129,302.114288 548.695129,287.068695 548.990906,271.321198 
	C551.647949,262.532349 556.438049,258.527863 564.739868,258.155090 
	C571.287354,257.861084 574.622925,260.554626 578.107971,269.884583 
	C578.562805,285.733093 579.017639,301.581635 579.473022,317.448547 
	C585.492615,317.448547 591.247009,317.448547 596.944946,317.448547 
	C596.944946,299.832703 596.944946,282.426880 597.017883,264.217316 
	C594.128418,249.611374 586.247070,242.193970 572.862610,241.705048 
	C570.974854,241.636093 568.967712,242.896866 567.171448,242.599960 
	C559.760071,241.375061 555.198242,245.697266 550.701660,250.406281 
	C549.900757,251.244995 548.859741,251.854523 548.113342,251.581268 
M694.926453,287.240265 
	C694.784363,280.969910 695.491577,274.533752 694.307251,268.466827 
	C692.382568,258.606598 686.312195,251.212814 677.872925,245.613434 
	C667.804871,238.933350 656.461548,238.999847 645.675842,240.952866 
	C620.562378,245.500244 607.617798,272.288727 618.432556,295.433594 
	C625.247009,310.017334 640.816772,318.743225 657.718567,317.450989 
	C677.108154,315.968506 689.151184,306.414337 694.926453,287.240265 
M1001.348938,311.919464 
	C1016.689392,301.899048 1023.208923,284.962799 1018.373352,267.775238 
	C1015.687683,258.229462 1010.175415,250.851486 1001.787598,245.527924 
	C991.692261,239.120636 980.474792,238.745636 969.493286,240.920425 
	C941.410583,246.481903 929.434326,279.652954 946.831848,302.470093 
	C958.595337,317.898041 981.346436,322.022034 1001.348938,311.919464 
M482.878357,316.763611 
	C496.096161,318.788483 508.053558,316.334747 518.616882,307.228577 
	C514.252502,302.539703 510.338074,298.334198 506.437500,294.143616 
	C496.413910,302.798187 485.864838,303.076111 477.119263,295.174896 
	C468.951416,287.795624 467.272705,273.845276 474.488342,265.264130 
	C477.583344,261.583466 482.446411,258.889343 487.031555,257.074310 
	C494.692108,254.041870 500.577576,258.844421 505.270294,262.952545 
	C509.904877,258.650208 514.125061,254.732544 518.325317,250.833389 
	C508.848969,239.001541 488.612091,236.960007 473.862122,243.286346 
	C458.159821,250.021103 450.221405,264.975708 451.884796,284.157501 
	C453.246216,299.856781 465.051147,312.490082 482.878357,316.763611 
M119.468880,297.920959 
	C116.865845,302.491394 114.262810,307.061829 111.486191,311.937042 
	C115.434044,314.185150 118.944130,316.183960 122.653564,318.296295 
	C129.669037,306.111908 136.476944,294.504272 143.037079,282.758209 
	C144.921875,279.383453 146.990601,277.744537 151.147461,277.943970 
	C159.449615,278.342346 167.788300,277.914581 176.103592,278.137939 
	C179.196335,278.221039 180.854706,277.184479 182.309311,274.488403 
	C185.748810,268.113403 189.557404,261.937592 193.296341,255.545151 
	C197.499313,257.909424 201.187119,259.983948 205.550903,262.438690 
	C206.085342,247.857880 206.586884,234.175034 207.125473,219.481216 
	C194.338608,227.143127 182.361633,234.319748 169.925049,241.771774 
	C174.326675,244.469910 178.082123,246.771957 181.919113,249.123962 
	C179.266098,253.755936 177.111588,258.109833 174.353058,262.039795 
	C173.262680,263.593231 170.857880,265.034180 169.000290,265.101074 
	C160.191132,265.418091 151.361618,265.365845 142.545151,265.176117 
	C139.509735,265.110748 137.737869,266.031403 136.234009,268.744263 
	C130.915146,278.339172 125.328323,287.785461 119.468880,297.920959 
M81.401482,250.417099 
	C81.401520,249.251740 81.388245,248.086182 81.403648,246.921036 
	C81.580856,233.514496 80.635094,233.663696 93.737305,232.618973 
	C93.737305,228.748718 93.737305,224.862473 93.737305,220.637817 
	C90.325722,220.637817 87.182693,220.603806 84.040604,220.644012 
	C73.251938,220.782059 68.615425,225.236694 68.248375,236.111176 
	C68.046303,242.097687 68.066025,248.099548 68.228310,254.087906 
	C68.348511,258.523407 66.099449,260.883240 62.148903,262.007568 
	C60.418125,262.500153 58.628162,262.784790 56.854675,263.166077 
	C56.854675,267.237152 56.854675,271.131805 56.854675,274.948914 
	C67.890007,277.392456 68.096985,277.770538 68.224541,288.920776 
	C68.294754,295.059113 68.394524,301.233582 69.116814,307.316254 
	C69.687225,312.119995 72.809334,315.852478 77.577560,316.747040 
	C82.846413,317.735504 88.328766,317.585876 94.009445,317.950623 
	C94.009445,315.011566 94.009445,313.023071 94.009445,311.034607 
	C94.009445,309.109833 94.009445,307.185089 94.009445,305.066071 
	C92.470184,305.066071 91.649551,305.074951 90.829170,305.064697 
	C82.597870,304.961792 81.465729,303.804321 81.403488,295.401459 
	C81.365265,290.241791 81.348816,285.081970 81.308884,279.922333 
	C81.266785,274.484344 79.152283,270.535889 71.928673,269.203156 
	C79.440575,267.435303 81.395988,263.070526 81.370270,257.373291 
	C81.361259,255.375885 81.389717,253.378342 81.401482,250.417099 
M252.729279,258.313141 
	C252.462326,256.369659 252.008194,254.430481 251.963287,252.481873 
	C251.825317,246.495621 252.085144,240.491898 251.741455,234.520782 
	C251.304138,226.922882 247.511978,221.798325 241.421906,221.079926 
	C236.541214,220.504181 231.538437,220.963531 226.603790,220.963531 
	C226.603790,225.041183 226.603790,228.919113 226.603790,233.050201 
	C227.962189,233.050201 228.947433,233.032990 229.931900,233.052917 
	C237.486862,233.205872 238.789978,234.545364 238.826096,242.246246 
	C238.846390,246.571945 238.957169,250.902405 238.800980,255.222534 
	C238.558548,261.927429 239.686722,267.672302 248.267365,269.197571 
	C240.973129,271.158020 239.008926,273.633514 238.858582,280.536530 
	C238.768051,284.694061 238.832062,288.854950 238.831009,293.014343 
	C238.828140,304.473785 238.828857,304.470459 227.361984,305.216675 
	C227.089874,305.234375 226.837173,305.550720 226.610947,305.703735 
	C226.610947,309.631775 226.610947,313.512360 226.610947,317.697601 
	C229.962692,317.697601 232.937500,317.739685 235.910782,317.690094 
	C246.903793,317.506744 251.577820,312.910736 251.878281,301.785889 
	C252.035446,295.966827 252.052002,290.136810 251.889832,284.318512 
	C251.753784,279.437042 254.277191,276.989349 258.687988,275.952423 
	C260.292725,275.575195 261.909058,275.247406 263.603210,274.878967 
	C263.603210,270.939026 263.603210,267.155518 263.603210,264.134460 
	C259.828491,262.290985 256.491943,260.661499 252.729279,258.313141 
M902.817749,311.287872 
	C902.817749,313.356445 902.817749,315.425049 902.817749,317.478271 
	C909.332642,317.478271 915.102661,317.478271 920.952087,317.478271 
	C920.952087,292.643585 920.952087,268.004150 920.952087,243.392975 
	C914.785034,243.392975 909.002563,243.392975 902.817749,243.392975 
	C902.817749,265.830536 902.817749,288.084076 902.817749,311.287872 
M909.136292,207.163589 
	C908.062561,207.601364 906.921814,207.922913 905.926208,208.496338 
	C900.585571,211.572311 898.669006,217.861984 901.411438,223.110703 
	C904.347290,228.729553 911.970154,230.936203 917.860168,227.872299 
	C923.243408,225.071960 925.581543,218.745728 922.887573,213.439651 
	C920.230408,208.206390 915.563904,206.544952 909.136292,207.163589 
z"/>
<path fill="#1D1C1B" opacity="1.000000" stroke="none" 
	d="
M530.046143,316.004669 
	C529.979919,291.762238 529.898010,267.519836 529.853516,243.277359 
	C529.828857,229.824753 529.866760,216.372055 530.426147,202.463776 
	C534.617554,202.006058 538.271729,202.192108 541.897522,201.950958 
	C545.826721,201.689636 547.105835,203.271820 547.057312,207.138809 
	C546.889282,220.544693 546.958740,233.954163 547.034180,247.361740 
	C547.043945,249.099411 547.617310,250.833923 547.929626,252.569901 
	C548.859741,251.854523 549.900757,251.244995 550.701660,250.406281 
	C555.198242,245.697266 559.760071,241.375061 567.171448,242.599960 
	C568.967712,242.896866 570.974854,241.636093 572.862610,241.705048 
	C586.247070,242.193970 594.128418,249.611374 596.639465,264.814819 
	C595.842346,267.278809 595.077820,269.142120 595.060974,271.012207 
	C594.951599,283.149536 595.072937,295.288818 594.983521,307.426514 
	C594.911011,317.270111 596.479431,315.664307 586.148743,316.081482 
	C581.871582,316.254181 580.830261,314.741821 580.916748,310.694611 
	C581.161865,299.226654 581.162781,287.745941 580.873779,276.280029 
	C580.812073,273.833710 579.117493,271.428528 578.175232,269.004395 
	C574.622925,260.554626 571.287354,257.861084 564.739868,258.155090 
	C556.438049,258.527863 551.647949,262.532349 548.475525,271.800903 
	C547.637695,273.813843 547.046448,275.345184 547.035583,276.880615 
	C546.955994,288.134552 546.765442,299.396149 547.103699,310.640503 
	C547.240356,315.183685 545.726501,316.448242 541.459595,316.066528 
	C537.683533,315.728699 533.852783,316.001465 530.046143,316.004669 
z"/>
<path fill="#1D1C1B" opacity="1.000000" stroke="none" 
	d="
M694.848633,287.648071 
	C689.151184,306.414337 677.108154,315.968506 657.718567,317.450989 
	C640.816772,318.743225 625.247009,310.017334 618.432556,295.433594 
	C607.617798,272.288727 620.562378,245.500244 645.675842,240.952866 
	C656.461548,238.999847 667.804871,238.933350 677.872925,245.613434 
	C686.312195,251.212814 692.382568,258.606598 694.307251,268.466827 
	C695.491577,274.533752 694.784363,280.969910 694.848633,287.648071 
M673.584045,266.094788 
	C666.478027,257.053650 656.689453,253.981461 647.219055,257.820038 
	C637.379700,261.808167 632.425354,271.029541 633.928284,282.557648 
	C635.210938,292.396454 647.063232,303.098724 655.380310,301.928223 
	C673.373108,299.396027 682.008362,283.038849 673.584045,266.094788 
z"/>
<path fill="#1D1C1B" opacity="1.000000" stroke="none" 
	d="
M1001.013794,312.075012 
	C981.346436,322.022034 958.595337,317.898041 946.831848,302.470093 
	C929.434326,279.652954 941.410583,246.481903 969.493286,240.920425 
	C980.474792,238.745636 991.692261,239.120636 1001.787598,245.527924 
	C1010.175415,250.851486 1015.687683,258.229462 1018.373352,267.775238 
	C1023.208923,284.962799 1016.689392,301.899048 1001.013794,312.075012 
M963.034668,263.582764 
	C962.193115,264.818970 961.242065,265.995270 960.527710,267.301025 
	C955.729370,276.071411 957.248840,287.882233 963.990784,294.620789 
	C970.734924,301.361572 980.794128,303.091675 989.034180,298.722565 
	C997.317444,294.330597 1001.355835,287.271393 1001.103638,277.940613 
	C1000.851135,268.596863 996.481628,261.629242 987.815369,258.022308 
	C978.762146,254.254272 970.571594,256.318176 963.034668,263.582764 
z"/>
<path fill="#1E1D1C" opacity="1.000000" stroke="none" 
	d="
M381.741760,288.993988 
	C386.733856,303.809814 406.346344,309.505066 421.152039,292.720032 
	C425.413605,295.937195 429.719421,299.187775 434.298523,302.644684 
	C426.841187,312.445099 416.894897,317.012573 405.045685,317.391479 
	C389.347443,317.893494 376.040680,312.776276 367.958435,298.572144 
	C360.088470,284.741119 360.492981,270.571381 368.905518,256.989136 
	C374.659271,247.699493 383.355438,242.053574 394.062439,240.694244 
	C404.064026,239.424469 414.295380,238.840149 423.174988,245.629181 
	C431.653503,252.111572 435.711914,260.884033 436.756195,271.867523 
	C436.272247,276.680939 436.137573,280.796204 436.002899,284.911438 
	C418.248169,284.953644 400.493469,284.995819 382.012543,285.209747 
	C381.438171,286.585632 381.589966,287.789825 381.741760,288.993988 
M381.316467,271.845062 
	C381.938782,272.229401 382.558990,272.944977 383.183685,272.948853 
	C394.140472,273.017090 405.098389,273.047028 416.054047,272.916504 
	C417.052795,272.904602 418.037811,271.742340 419.082764,270.279938 
	C418.851105,263.401337 415.932983,257.993530 409.518524,255.324219 
	C398.953308,250.927582 383.120117,253.617172 381.316467,271.845062 
z"/>
<path fill="#201F1E" opacity="1.000000" stroke="none" 
	d="
M1054.890869,254.773132 
	C1055.073486,254.637924 1055.256104,254.502731 1056.073364,254.128479 
	C1057.132935,252.910187 1057.557739,251.930939 1057.982666,250.951691 
	C1065.075317,240.675797 1075.498047,240.334259 1086.025269,242.535233 
	C1096.057007,244.632614 1102.286011,251.576004 1103.820190,261.789276 
	C1104.729370,267.841278 1104.636353,274.067505 1104.696411,280.218292 
	C1104.816528,292.514587 1104.732056,304.812866 1104.732056,317.400269 
	C1098.439453,317.400269 1092.551270,317.400269 1086.170776,317.400269 
	C1086.170776,305.750458 1086.222656,294.300385 1086.143433,282.851257 
	C1086.114746,278.696960 1086.171143,274.478058 1085.488403,270.406067 
	C1084.216064,262.819183 1080.348633,258.920929 1074.256958,258.206238 
	C1067.191650,257.377350 1060.371704,261.095520 1057.604370,267.564667 
	C1056.705933,269.664856 1056.440552,272.035828 1055.388672,274.803894 
	C1054.594360,276.868561 1054.060425,278.409241 1054.040405,279.956543 
	C1053.948486,287.066986 1054.089966,294.180817 1053.968506,301.290375 
	C1053.887695,306.019592 1055.260376,312.581177 1052.770264,314.960052 
	C1050.211914,317.404144 1043.749268,315.761322 1038.996094,315.444153 
	C1038.998047,295.153320 1038.914062,275.324829 1039.033569,255.497543 
	C1039.099487,244.556534 1037.067871,246.275040 1048.460449,245.940781 
	C1051.890503,245.840134 1053.458740,246.834961 1053.039917,250.422516 
	C1052.868286,251.892166 1053.102295,253.409180 1053.151733,254.904663 
	C1053.731445,254.860809 1054.311157,254.816956 1054.890869,254.773132 
z"/>
<path fill="#201F1E" opacity="1.000000" stroke="none" 
	d="
M802.748291,244.071259 
	C803.070862,243.205444 803.379272,241.591934 803.718079,241.585541 
	C809.093018,241.484116 814.472839,241.558182 819.848022,241.713104 
	C820.215881,241.723694 820.556091,242.692551 820.509399,243.713562 
	C819.747986,246.065094 819.078003,247.917725 819.071594,249.772675 
	C818.997681,271.104767 819.024414,292.437195 819.024414,314.034973 
	C815.474670,314.034973 812.162415,313.878601 808.872131,314.080048 
	C805.741882,314.271729 804.912659,312.914062 804.864746,309.987854 
	C804.834351,308.129272 803.796753,306.287201 803.210754,304.437714 
	C803.021179,304.534210 802.831604,304.630707 802.114014,305.077454 
	C801.477112,305.825500 801.368225,306.223206 801.259338,306.620941 
	C801.259338,306.620941 801.239319,306.886108 800.769287,306.985291 
	C798.914551,308.833435 797.529846,310.582458 796.145142,312.331421 
	C780.902222,324.652344 757.448425,315.868347 754.055725,296.547638 
	C753.683594,294.428528 753.536987,292.269775 753.739319,289.442505 
	C754.445496,288.160645 754.916260,287.566589 754.918823,286.970551 
	C754.975769,273.543671 755.012146,260.116425 754.926819,246.690033 
	C754.921143,245.799759 753.916199,244.915833 753.376099,244.028976 
	C754.100281,243.170700 754.795105,241.599945 755.553223,241.568741 
	C760.827271,241.351700 766.114563,241.454117 771.902710,241.454117 
	C771.902710,253.732162 771.786316,265.616516 771.961243,277.496613 
	C772.029114,282.108032 772.281982,286.817200 773.297729,291.289398 
	C774.651978,297.251526 780.772400,302.615540 785.363037,301.800049 
	C791.583252,300.695129 797.481262,298.442810 800.349976,291.960999 
	C800.950989,290.603119 801.377136,289.167816 802.429565,287.363281 
	C802.808105,285.909637 802.640930,284.860901 802.473694,283.812164 
	C802.452698,271.196838 802.431702,258.581512 802.759766,245.425446 
	C803.203674,244.780792 803.298462,244.676926 803.393250,244.573029 
	C803.178284,244.405762 802.963318,244.238510 802.748291,244.071259 
z"/>
<path fill="#1E1D1C" opacity="1.000000" stroke="none" 
	d="
M331.680695,294.885742 
	C333.246887,296.895630 334.813080,298.905518 336.737732,301.415588 
	C341.075073,302.506165 345.053986,303.096619 349.596588,303.770721 
	C349.596588,306.755310 349.596588,310.609192 349.596588,313.908508 
	C347.798645,315.045288 346.392639,315.934265 344.986633,316.823212 
	C340.511139,316.936829 336.000519,317.462921 331.566925,317.084900 
	C319.407410,316.048096 313.602142,310.098267 313.131653,297.798187 
	C312.686066,286.149384 312.876831,274.476166 312.792236,262.813690 
	C312.779266,261.023621 312.790466,259.233368 312.790466,257.143768 
	C307.532104,257.143768 302.733185,257.143768 297.696198,257.143768 
	C297.696198,251.916748 297.696198,246.989792 297.696198,241.466537 
	C302.655853,241.466537 307.552765,241.466537 312.739044,241.466537 
	C312.739044,234.090408 312.739044,227.301575 312.739044,219.942337 
	C318.126007,219.942337 323.238007,219.704681 328.294495,220.128952 
	C329.397461,220.221512 331.076660,222.633560 331.161285,224.056381 
	C331.494507,229.661514 331.297852,235.298141 331.297852,241.437988 
	C338.295074,241.437988 344.871704,241.437988 351.598450,241.437988 
	C351.598450,246.874069 351.598450,251.786850 351.598450,256.993622 
	C344.935730,256.993622 338.484741,256.993622 331.290649,256.993622 
	C331.290649,267.874329 331.290649,278.472382 330.874481,289.765533 
	C330.865784,291.935699 331.273224,293.410706 331.680695,294.885742 
z"/>
<path fill="#1D1C1B" opacity="1.000000" stroke="none" 
	d="
M482.484253,316.622986 
	C465.051147,312.490082 453.246216,299.856781 451.884796,284.157501 
	C450.221405,264.975708 458.159821,250.021103 473.862122,243.286346 
	C488.612091,236.960007 508.848969,239.001541 518.325317,250.833389 
	C514.125061,254.732544 509.904877,258.650208 505.270294,262.952545 
	C500.577576,258.844421 494.692108,254.041870 487.031555,257.074310 
	C482.446411,258.889343 477.583344,261.583466 474.488342,265.264130 
	C467.272705,273.845276 468.951416,287.795624 477.119263,295.174896 
	C485.864838,303.076111 496.413910,302.798187 506.437500,294.143616 
	C510.338074,298.334198 514.252502,302.539703 518.616882,307.228577 
	C508.053558,316.334747 496.096161,318.788483 482.484253,316.622986 
z"/>
<path fill="#1D1C1B" opacity="1.000000" stroke="none" 
	d="
M885.999756,256.980804 
	C880.314392,257.026428 874.629089,257.072083 868.248779,256.814148 
	C866.703735,257.738678 865.272034,258.899078 865.119568,260.208405 
	C864.757935,263.314880 864.909790,266.495239 865.020447,269.639862 
	C865.304749,277.716827 865.414062,285.815125 866.155884,293.852936 
	C866.431519,296.838287 866.981323,300.723389 871.616760,300.797058 
	C871.616760,300.797058 871.863708,300.767731 871.976562,301.240021 
	C873.042053,302.457794 873.995300,303.835968 874.947266,303.835144 
	C878.385803,303.832123 881.823792,303.365143 885.280457,303.071777 
	C886.825989,309.098755 886.622131,309.761902 880.997986,316.854004 
	C875.859802,316.904480 870.687561,317.352844 865.590881,316.917389 
	C856.697510,316.157501 850.889465,311.120392 849.904785,302.226776 
	C848.865173,292.836365 849.057312,283.304474 848.827209,273.831604 
	C848.698181,268.517395 848.804016,263.197540 848.804016,257.131104 
	C844.382751,257.131104 840.141724,257.131104 835.377258,256.875549 
	C834.584839,256.673706 834.315796,256.727478 834.046814,256.781219 
	C833.693115,251.958954 833.339478,247.136688 832.945190,241.760254 
	C838.297852,241.760254 843.177856,241.760254 848.496338,241.760254 
	C848.496338,234.397232 848.496338,227.536484 848.496338,219.951965 
	C853.298279,219.951965 857.687927,219.951965 862.618408,220.404541 
	C863.773560,225.817596 864.734253,230.764923 864.923096,235.741547 
	C865.223999,243.669693 865.315491,243.994354 873.066528,244.000610 
	C886.020325,244.011032 886.020325,244.011047 885.999756,256.980804 
M834.457703,244.491562 
	C834.457703,244.491562 834.560791,244.423981 834.457703,244.491562 
z"/>
<path fill="#96C13F" opacity="1.000000" stroke="none" 
	d="
M119.655983,297.604553 
	C125.328323,287.785461 130.915146,278.339172 136.234009,268.744263 
	C137.737869,266.031403 139.509735,265.110748 142.545151,265.176117 
	C151.361618,265.365845 160.191132,265.418091 169.000290,265.101074 
	C170.857880,265.034180 173.262680,263.593231 174.353058,262.039795 
	C177.111588,258.109833 179.266098,253.755936 181.919113,249.123962 
	C178.082123,246.771957 174.326675,244.469910 169.925049,241.771774 
	C182.361633,234.319748 194.338608,227.143127 207.125473,219.481216 
	C206.586884,234.175034 206.085342,247.857880 205.550903,262.438690 
	C201.187119,259.983948 197.499313,257.909424 193.296341,255.545151 
	C189.557404,261.937592 185.748810,268.113403 182.309311,274.488403 
	C180.854706,277.184479 179.196335,278.221039 176.103592,278.137939 
	C167.788300,277.914581 159.449615,278.342346 151.147461,277.943970 
	C146.990601,277.744537 144.921875,279.383453 143.037079,282.758209 
	C136.476944,294.504272 129.669037,306.111908 122.653564,318.296295 
	C118.944130,316.183960 115.434044,314.185150 111.486191,311.937042 
	C114.262810,307.061829 116.865845,302.491394 119.655983,297.604553 
z"/>
<path fill="#21201F" opacity="1.000000" stroke="none" 
	d="
M713.534058,203.037521 
	C713.830261,202.365326 714.115479,201.113434 714.424316,201.107590 
	C719.247192,201.016357 724.074097,201.154221 728.898376,201.097076 
	C732.713501,201.051895 731.967896,203.749649 731.969666,205.969955 
	C731.986755,227.272171 731.980042,248.574417 731.979919,269.876648 
	C731.979797,284.521942 732.033997,299.167786 731.883728,313.811554 
	C731.870605,315.094330 730.515503,316.363342 729.207642,317.127869 
	C724.379517,316.851715 720.127380,317.086456 715.875305,317.321228 
	C715.000854,316.722534 714.126465,316.123840 713.727051,315.092621 
	C714.470520,313.589233 714.972290,312.518646 714.973572,311.447510 
	C715.014587,276.570587 715.022766,241.693619 714.945251,206.816833 
	C714.942444,205.556030 714.025208,204.297241 713.534058,203.037521 
z"/>
<path fill="#078D9A" opacity="1.000000" stroke="none" 
	d="
M81.401276,250.898987 
	C81.389717,253.378342 81.361259,255.375885 81.370270,257.373291 
	C81.395988,263.070526 79.440575,267.435303 71.928673,269.203156 
	C79.152283,270.535889 81.266785,274.484344 81.308884,279.922333 
	C81.348816,285.081970 81.365265,290.241791 81.403488,295.401459 
	C81.465729,303.804321 82.597870,304.961792 90.829170,305.064697 
	C91.649551,305.074951 92.470184,305.066071 94.009445,305.066071 
	C94.009445,307.185089 94.009445,309.109833 94.009445,311.034607 
	C94.009445,313.023071 94.009445,315.011566 94.009445,317.950623 
	C88.328766,317.585876 82.846413,317.735504 77.577560,316.747040 
	C72.809334,315.852478 69.687225,312.119995 69.116814,307.316254 
	C68.394524,301.233582 68.294754,295.059113 68.224541,288.920776 
	C68.096985,277.770538 67.890007,277.392456 56.854675,274.948914 
	C56.854675,271.131805 56.854675,267.237152 56.854675,263.166077 
	C58.628162,262.784790 60.418125,262.500153 62.148903,262.007568 
	C66.099449,260.883240 68.348511,258.523407 68.228310,254.087906 
	C68.066025,248.099548 68.046303,242.097687 68.248375,236.111176 
	C68.615425,225.236694 73.251938,220.782059 84.040604,220.644012 
	C87.182693,220.603806 90.325722,220.637817 93.737305,220.637817 
	C93.737305,224.862473 93.737305,228.748718 93.737305,232.618973 
	C80.635094,233.663696 81.580856,233.514496 81.403648,246.921036 
	C81.388245,248.086182 81.401520,249.251740 81.401276,250.898987 
z"/>
<path fill="#088E9B" opacity="1.000000" stroke="none" 
	d="
M252.942352,258.672577 
	C256.491943,260.661499 259.828491,262.290985 263.603210,264.134460 
	C263.603210,267.155518 263.603210,270.939026 263.603210,274.878967 
	C261.909058,275.247406 260.292725,275.575195 258.687988,275.952423 
	C254.277191,276.989349 251.753784,279.437042 251.889832,284.318512 
	C252.052002,290.136810 252.035446,295.966827 251.878281,301.785889 
	C251.577820,312.910736 246.903793,317.506744 235.910782,317.690094 
	C232.937500,317.739685 229.962692,317.697601 226.610947,317.697601 
	C226.610947,313.512360 226.610947,309.631775 226.610947,305.703735 
	C226.837173,305.550720 227.089874,305.234375 227.361984,305.216675 
	C238.828857,304.470459 238.828140,304.473785 238.831009,293.014343 
	C238.832062,288.854950 238.768051,284.694061 238.858582,280.536530 
	C239.008926,273.633514 240.973129,271.158020 248.267365,269.197571 
	C239.686722,267.672302 238.558548,261.927429 238.800980,255.222534 
	C238.957169,250.902405 238.846390,246.571945 238.826096,242.246246 
	C238.789978,234.545364 237.486862,233.205872 229.931900,233.052917 
	C228.947433,233.032990 227.962189,233.050201 226.603790,233.050201 
	C226.603790,228.919113 226.603790,225.041183 226.603790,220.963531 
	C231.538437,220.963531 236.541214,220.504181 241.421906,221.079926 
	C247.511978,221.798325 251.304138,226.922882 251.741455,234.520782 
	C252.085144,240.491898 251.825317,246.495621 251.963287,252.481873 
	C252.008194,254.430481 252.462326,256.369659 252.942352,258.672577 
z"/>
<path fill="#1C1B1A" opacity="1.000000" stroke="none" 
	d="
M902.817749,310.812744 
	C902.817749,288.084076 902.817749,265.830536 902.817749,243.392975 
	C909.002563,243.392975 914.785034,243.392975 920.952087,243.392975 
	C920.952087,268.004150 920.952087,292.643585 920.952087,317.478271 
	C915.102661,317.478271 909.332642,317.478271 902.817749,317.478271 
	C902.817749,315.425049 902.817749,313.356445 902.817749,310.812744 
z"/>
<path fill="#1E1D1C" opacity="1.000000" stroke="none" 
	d="
M909.543213,207.098969 
	C915.563904,206.544952 920.230408,208.206390 922.887573,213.439651 
	C925.581543,218.745728 923.243408,225.071960 917.860168,227.872299 
	C911.970154,230.936203 904.347290,228.729553 901.411438,223.110703 
	C898.669006,217.861984 900.585571,211.572311 905.926208,208.496338 
	C906.921814,207.922913 908.062561,207.601364 909.543213,207.098969 
z"/>
<path fill="#171716" opacity="1.000000" stroke="none" 
	d="
M578.141602,269.444489 
	C579.117493,271.428528 580.812073,273.833710 580.873779,276.280029 
	C581.162781,287.745941 581.161865,299.226654 580.916748,310.694611 
	C580.830261,314.741821 581.871582,316.254181 586.148743,316.081482 
	C596.479431,315.664307 594.911011,317.270111 594.983521,307.426514 
	C595.072937,295.288818 594.951599,283.149536 595.060974,271.012207 
	C595.077820,269.142120 595.842346,267.278809 596.603027,265.216736 
	C596.944946,282.426880 596.944946,299.832703 596.944946,317.448547 
	C591.247009,317.448547 585.492615,317.448547 579.473022,317.448547 
	C579.017639,301.581635 578.562805,285.733093 578.141602,269.444489 
z"/>
<path fill="#0B0A0A" opacity="1.000000" stroke="none" 
	d="
M713.423401,203.491730 
	C714.025208,204.297241 714.942444,205.556030 714.945251,206.816833 
	C715.022766,241.693619 715.014587,276.570587 714.973572,311.447510 
	C714.972290,312.518646 714.470520,313.589233 713.854980,314.809692 
	C713.434082,296.377533 713.328186,277.795807 713.295410,259.213959 
	C713.262939,240.791367 713.303955,222.368622 713.423401,203.491730 
z"/>
<path fill="#21201F" opacity="1.000000" stroke="none" 
	d="
M1054.851440,254.265305 
	C1054.311157,254.816956 1053.731445,254.860809 1053.151733,254.904663 
	C1053.102295,253.409180 1052.868286,251.892166 1053.039917,250.422516 
	C1053.458740,246.834961 1051.890503,245.840134 1048.460449,245.940781 
	C1037.067871,246.275040 1039.099487,244.556534 1039.033569,255.497543 
	C1038.914062,275.324829 1038.998047,295.153320 1038.739258,315.450623 
	C1038.310181,315.917358 1038.138794,315.914825 1037.883545,315.721436 
	C1037.638428,315.291229 1037.423584,315.118683 1037.155029,315.012878 
	C1037.155029,291.240356 1037.155029,267.467804 1037.155029,243.443115 
	C1042.956421,243.443115 1048.543701,243.443115 1054.812012,243.443115 
	C1054.812012,246.902054 1054.812012,250.329773 1054.851440,254.265305 
z"/>
<path fill="#2C2B2A" opacity="1.000000" stroke="none" 
	d="
M803.257812,304.931152 
	C803.796753,306.287201 804.834351,308.129272 804.864746,309.987854 
	C804.912659,312.914062 805.741882,314.271729 808.872131,314.080048 
	C812.162415,313.878601 815.474670,314.034973 819.024414,314.034973 
	C819.024414,292.437195 818.997681,271.104767 819.071594,249.772675 
	C819.078003,247.917725 819.747986,246.065094 820.492554,244.101746 
	C820.875366,267.731598 820.875366,291.471039 820.875366,315.518921 
	C815.220581,315.518921 809.635437,315.518921 803.304932,315.518921 
	C803.304932,312.233124 803.304932,308.828857 803.257812,304.931152 
z"/>
<path fill="#201F1E" opacity="1.000000" stroke="none" 
	d="
M886.438232,257.032593 
	C886.020325,244.011047 886.020325,244.011032 873.066528,244.000610 
	C865.315491,243.994354 865.223999,243.669693 864.923096,235.741547 
	C864.734253,230.764923 863.773560,225.817596 863.078979,220.485519 
	C864.296143,220.113922 865.593506,220.113922 867.172974,220.113922 
	C867.172974,227.033325 867.172974,233.803040 867.172974,241.228607 
	C874.109497,241.228607 880.803467,241.228607 888.415161,241.228607 
	C887.856323,246.988052 887.366516,252.036209 886.438232,257.032593 
z"/>
<path fill="#0B0A0A" opacity="1.000000" stroke="none" 
	d="
M548.021484,252.075592 
	C547.617310,250.833923 547.043945,249.099411 547.034180,247.361740 
	C546.958740,233.954163 546.889282,220.544693 547.057312,207.138809 
	C547.105835,203.271820 545.826721,201.689636 541.897522,201.950958 
	C538.271729,202.192108 534.617554,202.006058 530.511963,202.001678 
	C531.073181,201.571686 532.089172,200.810425 533.125061,200.782440 
	C537.945068,200.652130 542.770630,200.724716 548.113342,200.724716 
	C548.113342,217.733337 548.113342,234.657303 548.021484,252.075592 
z"/>
<path fill="#0B0A0A" opacity="1.000000" stroke="none" 
	d="
M530.036560,316.423706 
	C533.852783,316.001465 537.683533,315.728699 541.459595,316.066528 
	C545.726501,316.448242 547.240356,315.183685 547.103699,310.640503 
	C546.765442,299.396149 546.955994,288.134552 547.035583,276.880615 
	C547.046448,275.345184 547.637695,273.813843 548.327637,272.151855 
	C548.695129,287.068695 548.695129,302.114288 548.695129,317.969391 
	C541.884399,317.558350 535.955627,317.200562 530.036560,316.423706 
z"/>
<path fill="#201F1E" opacity="1.000000" stroke="none" 
	d="
M871.388184,300.489380 
	C866.981323,300.723389 866.431519,296.838287 866.155884,293.852936 
	C865.414062,285.815125 865.304749,277.716827 865.020447,269.639862 
	C864.909790,266.495239 864.757935,263.314880 865.119568,260.208405 
	C865.272034,258.899078 866.703735,257.738678 867.783325,256.770691 
	C867.778992,262.958435 867.390930,268.885040 867.353943,274.813904 
	C867.315613,280.954620 867.323059,287.126221 867.917725,293.225067 
	C868.151917,295.626465 870.030151,297.867584 871.388184,300.489380 
z"/>
<path fill="#030202" opacity="1.000000" stroke="none" 
	d="
M1037.967529,315.912323 
	C1038.138794,315.914825 1038.310181,315.917358 1038.738281,315.913452 
	C1043.749268,315.761322 1050.211914,317.404144 1052.770264,314.960052 
	C1055.260376,312.581177 1053.887695,306.019592 1053.968506,301.290375 
	C1054.089966,294.180817 1053.948486,287.066986 1054.040405,279.956543 
	C1054.060425,278.409241 1054.594360,276.868561 1055.248413,275.185120 
	C1055.605225,288.978180 1055.605225,302.910919 1055.605225,317.564484 
	C1049.887451,317.564484 1044.315674,317.564484 1038.352417,317.086487 
	C1037.963135,316.376434 1037.965332,316.144379 1037.967529,315.912323 
z"/>
<path fill="#0B0A0A" opacity="1.000000" stroke="none" 
	d="
M753.285278,244.487793 
	C753.916199,244.915833 754.921143,245.799759 754.926819,246.690033 
	C755.012146,260.116425 754.975769,273.543671 754.918823,286.970551 
	C754.916260,287.566589 754.445496,288.160645 753.815674,289.010986 
	C753.357239,274.493134 753.275879,259.719879 753.285278,244.487793 
z"/>
<path fill="#201F1E" opacity="1.000000" stroke="none" 
	d="
M881.396851,316.866241 
	C886.622131,309.761902 886.825989,309.098755 885.280457,303.071777 
	C881.823792,303.365143 878.385803,303.832123 874.947266,303.835144 
	C873.995300,303.835968 873.042053,302.457794 872.044861,301.343933 
	C877.163635,300.975555 882.326965,300.975555 887.718140,300.975555 
	C887.718140,304.941833 887.718140,309.831909 887.718140,315.081726 
	C885.827942,315.655182 883.811829,316.266846 881.396851,316.866241 
z"/>
<path fill="#2C2B2A" opacity="1.000000" stroke="none" 
	d="
M345.382202,316.865509 
	C346.392639,315.934265 347.798645,315.045288 349.596588,313.908508 
	C349.596588,310.609192 349.596588,306.755310 349.596588,303.770721 
	C345.053986,303.096619 341.075073,302.506165 337.038330,301.581177 
	C341.696838,301.246643 346.413208,301.246643 351.499481,301.246643 
	C351.499481,304.930389 351.499481,309.789246 351.499481,315.157043 
	C349.842682,315.664001 347.810242,316.285889 345.382202,316.865509 
z"/>
<path fill="#171716" opacity="1.000000" stroke="none" 
	d="
M436.432739,284.962097 
	C436.137573,280.796204 436.272247,276.680939 436.708191,272.280884 
	C436.960510,276.334961 436.911560,280.673859 436.432739,284.962097 
z"/>
<path fill="#0B0A0A" opacity="1.000000" stroke="none" 
	d="
M716.279297,317.442078 
	C720.127380,317.086456 724.379517,316.851715 728.888794,316.969971 
	C724.991699,317.402954 720.837463,317.482941 716.279297,317.442078 
z"/>
<path fill="#2C2B2A" opacity="1.000000" stroke="none" 
	d="
M796.460632,312.213440 
	C797.529846,310.582458 798.914551,308.833435 800.649048,307.042175 
	C799.591309,308.698425 798.183716,310.396912 796.460632,312.213440 
z"/>
<path fill="#171716" opacity="1.000000" stroke="none" 
	d="
M381.758545,288.581146 
	C381.589966,287.789825 381.438171,286.585632 381.530518,285.179871 
	C381.774872,286.041626 381.775116,287.104950 381.758545,288.581146 
z"/>
<path fill="#21201F" opacity="1.000000" stroke="none" 
	d="
M1057.710205,251.108002 
	C1057.557739,251.930939 1057.132935,252.910187 1056.362183,253.947449 
	C1056.490112,253.091751 1056.963867,252.178024 1057.710205,251.108002 
z"/>
<path fill="#030202" opacity="1.000000" stroke="none" 
	d="
M331.680542,294.472168 
	C331.273224,293.410706 330.865784,291.935699 330.757324,290.220184 
	C331.264343,291.339325 331.472351,292.698944 331.680542,294.472168 
z"/>
<path fill="#0B0A0A" opacity="1.000000" stroke="none" 
	d="
M802.348999,284.232544 
	C802.640930,284.860901 802.808105,285.909637 802.584229,287.116547 
	C802.203430,286.400787 802.213806,285.526855 802.348999,284.232544 
z"/>
<path fill="#201F1E" opacity="1.000000" stroke="none" 
	d="
M1037.883545,315.721436 
	C1037.965332,316.144379 1037.963135,316.376434 1037.929688,316.955322 
	C1037.599365,316.770325 1037.300415,316.238495 1037.078247,315.359802 
	C1037.423584,315.118683 1037.638428,315.291229 1037.883545,315.721436 
z"/>
<path fill="#0B0A0A" opacity="1.000000" stroke="none" 
	d="
M802.632385,244.322754 
	C802.963318,244.238510 803.178284,244.405762 803.393250,244.573029 
	C803.298462,244.676926 803.203674,244.780792 802.918701,244.985291 
	C802.657837,244.915344 802.587158,244.744812 802.632385,244.322754 
z"/>
<path fill="#2C2B2A" opacity="1.000000" stroke="none" 
	d="
M801.519592,306.435974 
	C801.368225,306.223206 801.477112,305.825500 801.832092,305.226868 
	C801.978760,305.434326 801.879272,305.842682 801.519592,306.435974 
z"/>
<path fill="#030202" opacity="1.000000" stroke="none" 
	d="
M834.264526,256.920746 
	C834.315796,256.727478 834.584839,256.673706 834.919678,256.781036 
	C834.817810,256.981506 834.649963,257.020874 834.264526,256.920746 
z"/>
<path fill="#FCFCFC" opacity="1.000000" stroke="none" 
	d="
M673.766724,266.424438 
	C682.008362,283.038849 673.373108,299.396027 655.380310,301.928223 
	C647.063232,303.098724 635.210938,292.396454 633.928284,282.557648 
	C632.425354,271.029541 637.379700,261.808167 647.219055,257.820038 
	C656.689453,253.981461 666.478027,257.053650 673.766724,266.424438 
z"/>
<path fill="#FCFCFC" opacity="1.000000" stroke="none" 
	d="
M963.271362,263.308350 
	C970.571594,256.318176 978.762146,254.254272 987.815369,258.022308 
	C996.481628,261.629242 1000.851135,268.596863 1001.103638,277.940613 
	C1001.355835,287.271393 997.317444,294.330597 989.034180,298.722565 
	C980.794128,303.091675 970.734924,301.361572 963.990784,294.620789 
	C957.248840,287.882233 955.729370,276.071411 960.527710,267.301025 
	C961.242065,265.995270 962.193115,264.818970 963.271362,263.308350 
z"/>
<path fill="#FCFCFC" opacity="1.000000" stroke="none" 
	d="
M381.500488,271.211548 
	C383.120117,253.617172 398.953308,250.927582 409.518524,255.324219 
	C415.932983,257.993530 418.851105,263.401337 418.587219,270.741486 
	C405.894623,271.205872 393.697571,271.208710 381.500488,271.211548 
z"/>
<path fill="#0B0A0A" opacity="1.000000" stroke="none" 
	d="
M381.408478,271.528320 
	C393.697571,271.208710 405.894623,271.205872 418.560455,271.158661 
	C418.037811,271.742340 417.052795,272.904602 416.054047,272.916504 
	C405.098389,273.047028 394.140472,273.017090 383.183685,272.948853 
	C382.558990,272.944977 381.938782,272.229401 381.408478,271.528320 
z"/>
<path fill="#030202" opacity="1.000000" stroke="none" 
	d="
M834.509277,244.457764 
	C834.560791,244.423981 834.457703,244.491562 834.509277,244.457764 
z"/>
</svg>