<?xml version="1.0" encoding="UTF-8"?>
<svg version="1.1" xmlns="http://www.w3.org/2000/svg" width="200" height="200">
<path d="M0 0 C66 0 132 0 200 0 C200 66 200 132 200 200 C134 200 68 200 0 200 C0 134 0 68 0 0 Z " fill="#F6EFF0" transform="translate(0,0)"/>
<path d="M0 0 C1.35226099 4.05678298 0.06908447 6.93053673 -1.125 10.875 C-2.97227115 17.185683 -4.6407001 23.50724448 -6.1171875 29.9140625 C-8.38548197 39.58526147 -10.8017215 49.21694625 -13.25 58.84375 C-13.44083035 59.59451939 -13.63166069 60.34528877 -13.82827377 61.11880875 C-15.41751291 67.36962064 -17.01068759 73.61942806 -18.60400391 79.86920166 C-19.79782847 84.55254643 -20.99026274 89.23624137 -22.18103027 93.92036438 C-22.7251751 96.05869538 -23.27120932 98.19653703 -23.81738281 100.33435059 C-26.66509663 111.5320444 -29.32277417 122.75565153 -32 134 C-65 134 -98 134 -132 134 C-130.04469792 130.08939584 -127.86955902 127.59356709 -124.82418823 124.5836792 C-124.29161758 124.04939969 -123.75904692 123.51512019 -123.21033776 122.96465039 C-121.42472926 121.17574788 -119.63206685 119.39408703 -117.83935547 117.61230469 C-116.55785903 116.33137238 -115.2768028 115.04999954 -113.99615479 113.76821899 C-110.51737763 110.28886741 -107.03246311 106.81572197 -103.54643011 103.34364223 C-99.90467304 99.71437735 -96.26856905 96.07945784 -92.63186646 92.44512939 C-85.7439851 85.56346725 -78.8510208 78.68691976 -71.95622456 71.81218648 C-64.10716512 63.9854723 -56.2637757 56.15308659 -48.42086196 48.32021475 C-32.28688439 32.20714916 -16.1457846 16.10123395 0 0 Z " fill="#FC0187" transform="translate(166,33)"/>
<path d="M0 0 C0.33 1.32 0.66 2.64 1 4 C0.34 4 -0.32 4 -1 4 C-1.2475 4.61875 -1.495 5.2375 -1.75 5.875 C-3 8 -3 8 -4.9375 8.9375 C-7.72905902 10.37557586 -8.51017533 12.29122788 -10 15 C-10.66 15.66 -11.32 16.32 -12 17 C18.69 17.33 49.38 17.66 81 18 C81.495 16.515 81.495 16.515 82 15 C82 16.65 82 18.3 82 20 C49 20 16 20 -18 20 C-16.23433463 16.46866927 -15.02506669 14.78657357 -12.3046875 12.109375 C-11.23154297 11.04589844 -11.23154297 11.04589844 -10.13671875 9.9609375 C-9.39035156 9.23132813 -8.64398438 8.50171875 -7.875 7.75 C-7.12089844 7.00492188 -6.36679687 6.25984375 -5.58984375 5.4921875 C-3.73099228 3.6568658 -1.86762995 1.8263809 0 0 Z " fill="#DD127C" transform="translate(52,147)"/>
<path d="M0 0 C1.09178911 3.27536732 0.93042848 4.04413619 0.00390625 7.23046875 C-0.22490234 8.03291016 -0.45371094 8.83535156 -0.68945312 9.66210938 C-0.93630859 10.49548828 -1.18316406 11.32886719 -1.4375 12.1875 C-1.68048828 13.03248047 -1.92347656 13.87746094 -2.17382812 14.74804688 C-2.77493493 16.8342411 -3.38647834 18.91742301 -4 21 C-4.33 21 -4.66 21 -5 21 C-5 18.03 -5 15.06 -5 12 C-6.98 12 -8.96 12 -11 12 C-7.49102731 7.81576108 -3.91939465 3.80411834 0 0 Z " fill="#E90E82" transform="translate(166,33)"/>
<path d="M0 0 C0.96743084 3.06279329 0.99021078 5.02584435 0.19555664 8.12597656 C-0.00472641 8.92650452 -0.20500946 9.72703247 -0.41136169 10.55181885 C-0.63526077 11.40612488 -0.85915985 12.26043091 -1.08984375 13.140625 C-1.31321915 14.02280701 -1.53659454 14.90498901 -1.76673889 15.81390381 C-2.48151625 18.62826859 -3.20932003 21.43907646 -3.9375 24.25 C-4.42469039 26.15863428 -4.91102887 28.06748622 -5.39648438 29.9765625 C-6.58778933 34.65362393 -7.79078706 39.32753797 -9 44 C-9.33 44 -9.66 44 -10 44 C-9.67 39.71 -9.34 35.42 -9 31 C-8.34 31 -7.68 31 -7 31 C-7.020625 30.05125 -7.04125 29.1025 -7.0625 28.125 C-7 25 -7 25 -6 23 C-5.93049459 21.45976004 -5.91547643 19.91665012 -5.9375 18.375 C-5.94652344 17.55773437 -5.95554688 16.74046875 -5.96484375 15.8984375 C-5.97644531 15.27195313 -5.98804688 14.64546875 -6 14 C-5.34 14 -4.68 14 -4 14 C-3.79503906 13.07316406 -3.59007812 12.14632812 -3.37890625 11.19140625 C-3.10949219 9.99386719 -2.84007812 8.79632813 -2.5625 7.5625 C-2.29566406 6.36753906 -2.02882812 5.17257813 -1.75390625 3.94140625 C-1 1 -1 1 0 0 Z " fill="#E01482" transform="translate(144,118)"/>
<path d="M0 0 C0.33 1.32 0.66 2.64 1 4 C0.34 4 -0.32 4 -1 4 C-1.2475 4.61875 -1.495 5.2375 -1.75 5.875 C-3 8 -3 8 -4.9375 8.9375 C-7.74901874 10.38585814 -8.49881625 12.25870794 -10 15 C-11.375 17.3125 -11.375 17.3125 -13 19 C-15.6875 19.25 -15.6875 19.25 -18 19 C-12.44964797 12.21623641 -6.23557973 6.14477032 0 0 Z " fill="#E8268A" transform="translate(52,147)"/>
<path d="M0 0 C0.33 1.32 0.66 2.64 1 4 C0.34 4 -0.32 4 -1 4 C-1.2475 4.639375 -1.495 5.27875 -1.75 5.9375 C-3 8 -3 8 -5.125 8.75 C-6.053125 8.87375 -6.053125 8.87375 -7 9 C-7.1546875 9.8971875 -7.1546875 9.8971875 -7.3125 10.8125 C-8.09824033 13.31258286 -8.96918853 14.37535082 -11 16 C-11.66 16 -12.32 16 -13 16 C-13 16.66 -13 17.32 -13 18 C-14.32 17.67 -15.64 17.34 -17 17 C-11.39 11.39 -5.78 5.78 0 0 Z " fill="#EA268A" transform="translate(116,83)"/>
<path d="M0 0 C0.66 0 1.32 0 2 0 C3.08828929 3.26486787 2.89901381 4.36990083 2.125 7.625 C1.94195312 8.42164063 1.75890625 9.21828125 1.5703125 10.0390625 C1 12 1 12 0 13 C-0.2165625 14.546875 -0.2165625 14.546875 -0.4375 16.125 C-1.2468307 21.70038927 -2.80267273 26.82058572 -5 32 C-6.11335801 28.64439526 -5.86343453 26.42069996 -5.0390625 23.0078125 C-4.81476563 22.05519531 -4.59046875 21.10257813 -4.359375 20.12109375 C-3.99585938 18.63802734 -3.99585938 18.63802734 -3.625 17.125 C-3.15735535 15.16962868 -2.69116821 13.21390811 -2.2265625 11.2578125 C-2.0090332 10.34547852 -1.79150391 9.43314453 -1.56738281 8.49316406 C-0.92661532 5.67753684 -0.41649338 2.85733829 0 0 Z " fill="#FDC9ED" transform="translate(166,32)"/>
<path d="M0 0 C0.33 0 0.66 0 1 0 C1.21221057 5.8888434 0.55320433 10.83290313 -1 16.5 C-1.28617188 17.59054688 -1.28617188 17.59054688 -1.578125 18.703125 C-2.04337245 20.47106531 -2.52043593 22.23588933 -3 24 C-3.66 24 -4.32 24 -5 24 C-4.39496146 18.3444819 -3.37814297 12.99786009 -1.9375 7.5 C-1.75123047 6.77296875 -1.56496094 6.0459375 -1.37304688 5.296875 C-0.91973545 3.53012276 -0.4604998 1.76489225 0 0 Z " fill="#FDC1EA" transform="translate(140,138)"/>
<path d="M0 0 C0.66 0 1.32 0 2 0 C1.34034961 6.86036401 -0.2362764 13.34443923 -2 20 C-2.66 20 -3.32 20 -4 20 C-3.34034961 13.13963599 -1.7637236 6.65556077 0 0 Z " fill="#FDC3EA" transform="translate(145,118)"/>
<path d="M0 0 C0.33 0 0.66 0 1 0 C1.39325819 6.97669157 0.63096039 12.51656189 -2 19 C-2.66 19 -3.32 19 -4 19 C-3.37968409 12.42465139 -1.85102717 6.33307408 0 0 Z " fill="#FCC3E9" transform="translate(156,75)"/>
<path d="M0 0 C0.66 0.33 1.32 0.66 2 1 C-3.33333333 6.33333333 -8.66666667 11.66666667 -14 17 C-14 15.02 -14 13.04 -14 11 C-13.44828125 10.93941406 -12.8965625 10.87882813 -12.328125 10.81640625 C-8.96987598 9.63876523 -7.20085251 7.48509669 -4.75 4.9375 C-3.85796875 4.01839844 -2.9659375 3.09929687 -2.046875 2.15234375 C-1.37140625 1.44207031 -0.6959375 0.73179687 0 0 Z " fill="#FEE1FA" transform="translate(46,151)"/>
<path d="M0 0 C1.32 0.33 2.64 0.66 4 1 C0.37 4.63 -3.26 8.26 -7 12 C-7 8.01601747 -5.28095986 5.16588074 -3 2 C-2.01 1.34 -1.02 0.68 0 0 Z " fill="#FCE4FA" transform="translate(92,103)"/>
<path d="M0 0 C1.53508028 2.43338652 2.03088304 3.67124507 1.7578125 6.578125 C1.54898438 7.45984375 1.34015625 8.3415625 1.125 9.25 C0.92132813 10.14203125 0.71765625 11.0340625 0.5078125 11.953125 C0.34023437 12.62859375 0.17265625 13.3040625 0 14 C-0.66 14 -1.32 14 -2 14 C-2.33 15.98 -2.66 17.96 -3 20 C-4.37344385 15.60155678 -3.24307502 12.07495445 -2.0625 7.75 C-1.86720703 7.00492187 -1.67191406 6.25984375 -1.47070312 5.4921875 C-0.98895802 3.65920614 -0.49560775 1.82928182 0 0 Z " fill="#FEC9F0" transform="translate(151,94)"/>
<path d="M0 0 C0.66 0 1.32 0 2 0 C0.77048326 7.47835477 -0.88829237 14.7216477 -3 22 C-3.33 22 -3.66 22 -4 22 C-4.05422947 20.5629191 -4.09289723 19.12524538 -4.125 17.6875 C-4.14820313 16.88699219 -4.17140625 16.08648437 -4.1953125 15.26171875 C-4 13 -4 13 -2 10 C-1.56261304 8.28555111 -1.19151312 6.55332216 -0.875 4.8125 C-0.70742187 3.91144531 -0.53984375 3.01039062 -0.3671875 2.08203125 C-0.24601563 1.39496094 -0.12484375 0.70789063 0 0 Z " fill="#DF1983" transform="translate(157,64)"/>
<path d="M0 0 C0.33 0.99 0.66 1.98 1 3 C0.67 3.66 0.34 4.32 0 5 C-0.99 5.33 -1.98 5.66 -3 6 C-3.45375 6.825 -3.9075 7.65 -4.375 8.5 C-6 11 -6 11 -8.6875 11.8125 C-9.450625 11.874375 -10.21375 11.93625 -11 12 C-7.49102731 7.81576108 -3.91939465 3.80411834 0 0 Z " fill="#EB2589" transform="translate(166,33)"/>
<path d="M0 0 C0.33 1.32 0.66 2.64 1 4 C0.34 4 -0.32 4 -1 4 C-1.20625 4.61875 -1.4125 5.2375 -1.625 5.875 C-3.54775888 8.84653645 -5.66594527 9.13024659 -9 10 C-8.06409496 8.8944811 -7.12620142 7.79064547 -6.1875 6.6875 C-5.66542969 6.07261719 -5.14335938 5.45773438 -4.60546875 4.82421875 C-3.12827531 3.14575321 -1.59960869 1.56117966 0 0 Z " fill="#E9298B" transform="translate(68,131)"/>
<path d="M0 0 C0.33 1.32 0.66 2.64 1 4 C0.34 4 -0.32 4 -1 4 C-1.20625 4.61875 -1.4125 5.2375 -1.625 5.875 C-3.54775888 8.84653645 -5.66594527 9.13024659 -9 10 C-8.06409496 8.8944811 -7.12620142 7.79064547 -6.1875 6.6875 C-5.66542969 6.07261719 -5.14335938 5.45773438 -4.60546875 4.82421875 C-3.12827531 3.14575321 -1.59960869 1.56117966 0 0 Z " fill="#E9298B" transform="translate(84,115)"/>
<path d="M0 0 C1.32 0.33 2.64 0.66 4 1 C0.37 4.63 -3.26 8.26 -7 12 C-7 8.38462395 -6.10770759 6.88834003 -4 4 C-3.01 4 -2.02 4 -1 4 C-0.67 2.68 -0.34 1.36 0 0 Z " fill="#FDE2FA" transform="translate(112,83)"/>
<path d="M0 0 C0.66 0.33 1.32 0.66 2 1 C-1.63 4.63 -5.26 8.26 -9 12 C-9 8.31446856 -8.1477418 6.96240248 -6 4 C-3.375 2.25 -3.375 2.25 -1 1 C-0.67 0.67 -0.34 0.34 0 0 Z " fill="#FEDEFB" transform="translate(146,51)"/>
<path d="M0 0 C0.66 0.99 1.32 1.98 2 3 C-0.83430453 6.2542015 -2.68607774 7.5206753 -7 8 C-6.02133662 6.85373678 -5.04205413 5.70800212 -4.0625 4.5625 C-3.51722656 3.92441406 -2.97195312 3.28632812 -2.41015625 2.62890625 C-1.63204305 1.73008851 -0.84063472 0.84063472 0 0 Z " fill="#EB288C" transform="translate(146,53)"/>
<path d="M0 0 C0.6875 1.8125 0.6875 1.8125 1 4 C-0.64504011 6.46756016 -1.80299352 6.94960299 -4.6875 7.6875 C-5.8321875 7.8421875 -5.8321875 7.8421875 -7 8 C-6.02133662 6.85373678 -5.04205413 5.70800212 -4.0625 4.5625 C-3.51722656 3.92441406 -2.97195312 3.28632812 -2.41015625 2.62890625 C-1.63204305 1.73008851 -0.84063472 0.84063472 0 0 Z " fill="#EA2A8C" transform="translate(98,101)"/>
<path d="M0 0 C0.6875 1.8125 0.6875 1.8125 1 4 C-0.64504011 6.46756016 -1.80299352 6.94960299 -4.6875 7.6875 C-5.8321875 7.8421875 -5.8321875 7.8421875 -7 8 C-6.02133662 6.85373678 -5.04205413 5.70800212 -4.0625 4.5625 C-3.51722656 3.92441406 -2.97195312 3.28632812 -2.41015625 2.62890625 C-1.63204305 1.73008851 -0.84063472 0.84063472 0 0 Z " fill="#EA298C" transform="translate(130,69)"/>
<path d="M0 0 C0.66 0.99 1.32 1.98 2 3 C1.360625 3.268125 0.72125 3.53625 0.0625 3.8125 C-2.33131686 4.88667752 -2.33131686 4.88667752 -3 8 C-4.32 7.67 -5.64 7.34 -7 7 C-4.69 4.69 -2.38 2.38 0 0 Z " fill="#E82C8B" transform="translate(138,61)"/>
<path d="M0 0 C0.33 0.99 0.66 1.98 1 3 C0.01 3.66 -0.98 4.32 -2 5 C-2.33 5.99 -2.66 6.98 -3 8 C-4.32 7.67 -5.64 7.34 -7 7 C-4.69 4.69 -2.38 2.38 0 0 Z " fill="#E5328D" transform="translate(154,45)"/>
<path d="M0 0 C1.32 0.33 2.64 0.66 4 1 C1.69 3.31 -0.62 5.62 -3 8 C-3 4.42424104 -1.91159393 2.94704065 0 0 Z " fill="#FDDFFA" transform="translate(124,71)"/>
<path d="M0 0 C2 4 2 4 1.8125 6.125 C1 8 1 8 -2 10 C-1.34 6.7 -0.68 3.4 0 0 Z " fill="#FDBEE7" transform="translate(151,94)"/>
<path d="M0 0 C0.33 0.99 0.66 1.98 1 3 C0 5 0 5 -3.0625 6.125 C-4.031875 6.41375 -5.00125 6.7025 -6 7 C-4.02 4.69 -2.04 2.38 0 0 Z " fill="#D94A8F" transform="translate(166,33)"/>
</svg>
