<?xml version="1.0" encoding="UTF-8"?>
<svg version="1.1" xmlns="http://www.w3.org/2000/svg" width="206" height="245">
<path d="M0 0 C67.98 0 135.96 0 206 0 C206 80.85 206 161.7 206 245 C138.02 245 70.04 245 0 245 C0 164.15 0 83.3 0 0 Z " fill="#0154A4" transform="translate(0,0)"/>
<path d="M0 0 C0.33 0 0.66 0 1 0 C1 80.85 1 161.7 1 245 C-66.98 245 -134.96 245 -205 245 C-205 231.8 -205 218.6 -205 205 C-137.35 205 -69.7 205 0 205 C0 137.35 0 69.7 0 0 Z " fill="#EBEDEF" transform="translate(205,0)"/>
<path d="M0 0 C2.64590014 -0.02684679 5.29153096 -0.04676357 7.9375 -0.0625 C8.69224609 -0.07087891 9.44699219 -0.07925781 10.22460938 -0.08789062 C12.14994313 -0.09652441 14.07535581 -0.05224333 16 0 C18.03123075 2.03123075 17.25669618 6.17768866 17.31640625 8.97265625 C17.33718735 9.77029892 17.35796844 10.56794159 17.37937927 11.38975525 C17.44496158 13.94724611 17.50379967 16.5048428 17.5625 19.0625 C17.60567699 20.79232882 17.64929101 22.52214679 17.69335938 24.25195312 C17.80065172 28.5011926 17.90189426 32.7505389 18 37 C18.92554687 36.21238281 19.85109375 35.42476562 20.8046875 34.61328125 C26.92252101 29.40715831 32.22891432 28.48817335 40.1328125 28.71484375 C46.41801862 29.33993918 51.83510056 32.166351 56 37 C59.79907094 43.31758379 60.65125576 49.17127887 60.5 56.4375 C60.48864014 57.36183838 60.47728027 58.28617676 60.46557617 59.23852539 C60.27881914 65.77849082 59.58618187 71.37968875 56 77 C55.63777344 77.57492188 55.27554688 78.14984375 54.90234375 78.7421875 C50.67077599 84.50859509 44.14165112 88.30224173 37.1953125 89.71875 C27.51554561 90.95886248 18.93398873 90.10096142 10.79296875 84.41967773 C7.49248184 81.42502095 6.48318283 79.03234812 6.08908081 74.58709812 C5.92870323 70.83704108 5.95133258 67.09995571 6 63.34765625 C5.9924749 61.72096318 5.98143515 60.0942829 5.96704102 58.46763611 C5.93869282 54.20434248 5.9578392 49.94255664 5.98712158 45.67932129 C6.00856607 41.32192299 5.98475974 36.96479269 5.96484375 32.60742188 C5.93245558 24.07123274 5.95027614 15.53610403 6 7 C3.69 6.34 1.38 5.68 -1 5 C-0.67 3.35 -0.34 1.7 0 0 Z " fill="#F8F9FC" transform="translate(97,109)"/>
<path d="M0 0 C7.59 0 15.18 0 23 0 C23.33 1.65 23.66 3.3 24 5 C23 6 23 6 20.4375 6.0625 C19.2309375 6.0315625 19.2309375 6.0315625 18 6 C19.07943604 9.12635986 20.16352651 12.25107888 21.25 15.375 C21.568479 16.29079834 21.88695801 17.20659668 22.21508789 18.15014648 C24.11475 23.57685597 26.08909803 28.94255738 28.37109375 34.22265625 C29 36 29 36 29 39 C29.66 39 30.32 39 31 39 C31.16435547 37.74860229 31.16435547 37.74860229 31.33203125 36.47192383 C32.07230255 32.6241906 33.29549135 29.0956582 34.6875 25.44921875 C34.95006592 24.74980667 35.21263184 24.05039459 35.4831543 23.32978821 C36.03532151 21.86235052 36.59013396 20.39590572 37.14746094 18.93041992 C38.00312643 16.67927476 38.84984358 14.42491386 39.6953125 12.16992188 C40.23385591 10.74199162 40.77290055 9.31425028 41.3125 7.88671875 C41.56668701 7.21074142 41.82087402 6.5347641 42.08276367 5.83830261 C43.88389969 1.11610031 43.88389969 1.11610031 45 0 C46.66617115 -0.04063832 48.33388095 -0.042721 50 0 C54.82569721 12.27692572 59.47984744 24.60736289 64 37 C66.07869528 33.88195708 67.13755549 31.11025943 68.3828125 27.58203125 C68.60194305 26.96478683 68.82107361 26.34754242 69.04684448 25.71159363 C69.74345193 23.74657972 70.43429372 21.77959496 71.125 19.8125 C71.59727699 18.47707935 72.06992899 17.14179127 72.54296875 15.80664062 C73.69966237 12.53928541 74.85119497 9.2701384 76 6 C74.865625 6.020625 73.73125 6.04125 72.5625 6.0625 C69 6 69 6 68 5 C68 3.35 68 1.7 68 0 C75.92 0 83.84 0 92 0 C92 1.65 92 3.3 92 5 C91 6 91 6 89.15234375 6.09765625 C87.1015625 6.06510417 85.05078125 6.03255208 83 6 C82.82327255 6.60943954 82.6465451 7.21887909 82.46446228 7.8467865 C79.87709769 16.63681315 76.76570576 25.19979472 73.5847168 33.78930664 C72.89821952 35.65171949 72.21862209 37.51668897 71.5456543 39.3840332 C70.56779501 42.09652159 69.56960858 44.80070489 68.56640625 47.50390625 C68.26835587 48.34232559 67.97030548 49.18074493 67.66322327 50.04457092 C67.37289719 50.81304855 67.08257111 51.58152618 66.78344727 52.37329102 C66.53490494 53.05150406 66.28636261 53.7297171 66.0302887 54.42848206 C65 56 65 56 62.99047852 56.79722595 C61 57 61 57 59.36889648 55.87109375 C57.75496611 53.66507228 56.96600735 51.65541686 56.09765625 49.0625 C55.76443359 48.08410156 55.43121094 47.10570312 55.08789062 46.09765625 C54.74951172 45.07542969 54.41113281 44.05320313 54.0625 43 C53.38750764 40.99973362 52.71172813 38.99973268 52.03515625 37 C51.70402832 36.01257813 51.37290039 35.02515625 51.03173828 34.0078125 C49.67004434 30.03808478 48.20975746 26.10756618 46.73217773 22.1796875 C46 20 46 20 46 18 C45.34 18 44.68 18 44 18 C43.88825439 18.83426514 43.77650879 19.66853027 43.66137695 20.52807617 C42.93199295 24.35700562 41.75836104 27.90455355 40.41796875 31.55078125 C40.0347924 32.59989937 40.0347924 32.59989937 39.64387512 33.67021179 C39.10473317 35.13778768 38.56250106 36.60423169 38.01733398 38.06958008 C37.18555496 40.31775717 36.37693475 42.573469 35.56835938 44.83007812 C35.04046882 46.25833307 34.51121932 47.68608664 33.98046875 49.11328125 C33.74176559 49.78925858 33.50306244 50.4652359 33.25712585 51.16169739 C32.53979492 53.04418945 32.53979492 53.04418945 31 56 C28.8137207 56.93041992 28.8137207 56.93041992 27 57 C23.31598641 52.00948242 21.22656522 46.88534562 19.109375 41.078125 C18.75989807 40.1369281 18.41042114 39.1957312 18.050354 38.22601318 C17.31733561 36.24724545 16.58805027 34.26709124 15.86230469 32.28564453 C14.74750196 29.24318247 13.62083618 26.20531825 12.4921875 23.16796875 C11.78055533 21.24244409 11.06959399 19.31667135 10.359375 17.390625 C10.02194275 16.47919739 9.6845105 15.56776978 9.33685303 14.62872314 C9.02943176 13.78734802 8.7220105 12.9459729 8.40527344 12.07910156 C8.13309998 11.33774963 7.86092651 10.59639771 7.58050537 9.83258057 C7 8 7 8 7 6 C5.5459375 6.0309375 5.5459375 6.0309375 4.0625 6.0625 C1 6 1 6 0 5 C0 3.35 0 1.7 0 0 Z " fill="#F7F9FB" transform="translate(7,140)"/>
<path d="M0 0 C4.64114744 1.77746072 6.53271738 4.77037265 9 9 C11.56427776 16.69283329 11.20290619 28.51764866 8.1171875 36.0703125 C5.20226815 41.10517319 1.51706275 45.82054964 -4 48 C-7.92564172 48.75465201 -11.46612135 48.7871981 -15.0703125 46.9375 C-18.76342295 44.09426852 -20.96760106 41.25280051 -21.79296875 36.52734375 C-23.61799335 14.24826987 -23.61799335 14.24826987 -18.37890625 6.6484375 C-12.6627999 -0.07779159 -8.73853892 -0.68388565 0 0 Z " fill="#0254A4" transform="translate(136,146)"/>
<path d="M0 0 C0.82306641 0.00064453 1.64613281 0.00128906 2.49414062 0.00195312 C8.54686202 0.04686202 8.54686202 0.04686202 9.6875 1.1875 C9.7864294 3.35230797 9.817211 5.52043785 9.8125 7.6875 C9.81636719 9.46640625 9.81636719 9.46640625 9.8203125 11.28125 C9.6875 14.1875 9.6875 14.1875 8.6875 15.1875 C7.02132885 15.22813832 5.35361905 15.230221 3.6875 15.1875 C3.419375 14.23875 3.15125 13.29 2.875 12.3125 C1.93763412 8.93482727 1.93763412 8.93482727 -1.3125 7.1875 C-5.37423896 6.61152597 -9.1030183 6.65650803 -12.875 8.3125 C-14.97103254 11.04645549 -14.72944598 12.81823956 -14.3125 16.1875 C-12.34245073 18.37737205 -12.34245073 18.37737205 -9.5625 20.0625 C-8.56605469 20.74054688 -7.56960937 21.41859375 -6.54296875 22.1171875 C-4.39131492 23.49611922 -2.22709617 24.8556408 -0.05078125 26.1953125 C10.09991167 32.56290584 10.09991167 32.56290584 12.26953125 38.1796875 C13.32787076 43.26367355 12.3717506 46.91674889 9.9375 51.4375 C5.88027453 56.39633113 1.59775196 59.73130394 -4.890625 60.48828125 C-12.64511942 60.52229219 -18.40836305 59.02005408 -25.375 55.75 C-28.59518566 51.49104477 -28.02574253 46.33786187 -27.3125 41.1875 C-26.6525 40.5275 -25.9925 39.8675 -25.3125 39.1875 C-21.77678571 39.72321429 -21.77678571 39.72321429 -20.3125 41.1875 C-20.23 42.445625 -20.1475 43.70375 -20.0625 45 C-19.67728988 48.20816783 -19.42533891 49.05414493 -17.25 51.625 C-13.56342678 53.5859432 -10.49175872 54.4001433 -6.3125 54.1875 C-3.04611486 53.03821634 -1.07412538 52.11469612 1.125 49.4375 C2.06972225 45.65861099 2.00376184 43.94824811 0.6875 40.1875 C-2.69672939 37.0954343 -6.47004861 34.67235058 -10.3125 32.1875 C-23.96432352 23.02940172 -23.96432352 23.02940172 -25.3125 16.25 C-25.56334769 13.00121653 -25.24196234 12.04078166 -23.75 8.9375 C-17.02090332 1.34569861 -9.66426588 -0.14725024 0 0 Z " fill="#F4F6FA" transform="translate(186.3125,138.8125)"/>
<path d="M0 0 C1.671549 0.30791692 3.33805547 0.64386903 5 1 C7.83967231 1 10.23735711 0.59732819 13 0 C13 0.66 13 1.32 13 2 C11.68 2 10.36 2 9 2 C10.65 3.65 12.3 5.3 14 7 C13.34 8.32 12.68 9.64 12 11 C7.71 11 3.42 11 -1 11 C-1.09765625 3.28515625 -1.09765625 3.28515625 -1 1 C-0.67 0.67 -0.34 0.34 0 0 Z " fill="#CCCDCD" transform="translate(76,234)"/>
<path d="M0 0 C4.62 0 9.24 0 14 0 C14 0.66 14 1.32 14 2 C13.01 2.33 12.02 2.66 11 3 C12.32 3.99 13.64 4.98 15 6 C14.67 7.32 14.34 8.64 14 10 C9.38 10 4.76 10 0 10 C0 6.7 0 3.4 0 0 Z " fill="#EAEAEA" transform="translate(122,215)"/>
<path d="M0 0 C1.23556641 0.01740234 1.23556641 0.01740234 2.49609375 0.03515625 C3.32238281 0.04417969 4.14867187 0.05320313 5 0.0625 C5.63808594 0.07410156 6.27617187 0.08570313 6.93359375 0.09765625 C6.93359375 1.41765625 6.93359375 2.73765625 6.93359375 4.09765625 C8.25359375 4.09765625 9.57359375 4.09765625 10.93359375 4.09765625 C10.93359375 2.77765625 10.93359375 1.45765625 10.93359375 0.09765625 C11.59359375 0.09765625 12.25359375 0.09765625 12.93359375 0.09765625 C12.93359375 3.39765625 12.93359375 6.69765625 12.93359375 10.09765625 C12.27359375 10.09765625 11.61359375 10.09765625 10.93359375 10.09765625 C10.93359375 8.77765625 10.93359375 7.45765625 10.93359375 6.09765625 C9.61359375 6.09765625 8.29359375 6.09765625 6.93359375 6.09765625 C6.93359375 7.41765625 6.93359375 8.73765625 6.93359375 10.09765625 C5.47566491 10.15165361 4.01716663 10.19044802 2.55859375 10.22265625 C1.74648437 10.24585938 0.934375 10.2690625 0.09765625 10.29296875 C-2.06640625 10.09765625 -2.06640625 10.09765625 -4.06640625 8.09765625 C-3.37005618 0.15926541 -3.37005618 0.15926541 0 0 Z " fill="#DDDDDD" transform="translate(163.06640625,214.90234375)"/>
<path d="M0 0 C1.21816406 0.03480469 1.21816406 0.03480469 2.4609375 0.0703125 C3.68683594 0.09738281 3.68683594 0.09738281 4.9375 0.125 C5.87722656 0.15980469 5.87722656 0.15980469 6.8359375 0.1953125 C7.1659375 1.1853125 7.4959375 2.1753125 7.8359375 3.1953125 C8.4959375 2.2053125 9.1559375 1.2153125 9.8359375 0.1953125 C10.4959375 0.5253125 11.1559375 0.8553125 11.8359375 1.1953125 C11.4646875 1.9378125 11.0934375 2.6803125 10.7109375 3.4453125 C9.54077887 6.13814897 9.54077887 6.13814897 10.7109375 8.5078125 C11.2678125 9.343125 11.2678125 9.343125 11.8359375 10.1953125 C10.8459375 9.8653125 9.8559375 9.5353125 8.8359375 9.1953125 C8.5059375 8.5353125 8.1759375 7.8753125 7.8359375 7.1953125 C7.5059375 8.1853125 7.1759375 9.1753125 6.8359375 10.1953125 C5.37800866 10.24930986 3.91951038 10.28810427 2.4609375 10.3203125 C1.64882813 10.34351563 0.83671875 10.36671875 0 10.390625 C-2.1640625 10.1953125 -2.1640625 10.1953125 -4.1640625 8.1953125 C-4.4140625 5.1953125 -4.4140625 5.1953125 -4.1640625 2.1953125 C-2.1640625 0.1953125 -2.1640625 0.1953125 0 0 Z " fill="#EEEEEE" transform="translate(58.1640625,214.8046875)"/>
<path d="M0 0 C1.9375 0.875 1.9375 0.875 3.9375 3.875 C4.5975 2.555 5.2575 1.235 5.9375 -0.125 C7.5875 -0.125 9.2375 -0.125 10.9375 -0.125 C10.9375 0.535 10.9375 1.195 10.9375 1.875 C9.6175 1.875 8.2975 1.875 6.9375 1.875 C6.9375 2.865 6.9375 3.855 6.9375 4.875 C8.2575 5.205 9.5775 5.535 10.9375 5.875 C9.6175 5.875 8.2975 5.875 6.9375 5.875 C6.9375 7.525 6.9375 9.175 6.9375 10.875 C5.31331255 10.95590971 3.68798255 11.01414995 2.0625 11.0625 C0.70511719 11.11470703 0.70511719 11.11470703 -0.6796875 11.16796875 C-1.85917969 11.02294922 -1.85917969 11.02294922 -3.0625 10.875 C-5.21752531 7.64246204 -5.53106135 6.62349077 -5.0625 2.875 C-3.4924846 0.5199769 -2.86748828 -0.17378717 0 0 Z " fill="#9A9C9E" transform="translate(123.0625,234.125)"/>
<path d="M0 0 C0.66 0 1.32 0 2 0 C2.33 2.64 2.66 5.28 3 8 C3.33 5.69 3.66 3.38 4 1 C4.66 1 5.32 1 6 1 C7.38938077 2.96147874 8.7260411 4.96166576 10 7 C10.33 5.02 10.66 3.04 11 1 C11.33 1 11.66 1 12 1 C12 3.97 12 6.94 12 10 C8.96569419 11.5171529 5.82594035 11.22513316 2.5 11.25 C1.81035156 11.270625 1.12070312 11.29125 0.41015625 11.3125 C-1.59375 11.328125 -1.59375 11.328125 -5 11 C-7.4294516 7.3558226 -7.16179575 5.28758728 -7 1 C-6.34 1 -5.68 1 -5 1 C-5 3.64 -5 6.28 -5 9 C-3.35 9 -1.7 9 0 9 C0 6.03 0 3.06 0 0 Z " fill="#A4A6A7" transform="translate(38,234)"/>
<path d="M0 0 C0.66 0 1.32 0 2 0 C2.09765625 6.15234375 2.09765625 6.15234375 2 8 C1 9 1 9 -0.94946289 9.11352539 C-1.7821167 9.10828857 -2.61477051 9.10305176 -3.47265625 9.09765625 C-4.37177734 9.09443359 -5.27089844 9.09121094 -6.19726562 9.08789062 C-7.14279297 9.07951172 -8.08832031 9.07113281 -9.0625 9.0625 C-10.01189453 9.05798828 -10.96128906 9.05347656 -11.93945312 9.04882812 C-14.29303065 9.0370011 -16.64648477 9.02052025 -19 9 C-19 7.68 -19 6.36 -19 5 C-18.34 5 -17.68 5 -17 5 C-16.67 5.33 -16.34 5.66 -16 6 C-15.34 4.35 -14.68 2.7 -14 1 C-11.9754262 2.93254772 -10.57894208 4.63158688 -9 7 C-8.34 5.35 -7.68 3.7 -7 2 C-6.67 2 -6.34 2 -6 2 C-5.87625 2.804375 -5.7525 3.60875 -5.625 4.4375 C-5.41875 5.283125 -5.2125 6.12875 -5 7 C-4.34 7.33 -3.68 7.66 -3 8 C-2.690625 6.865625 -2.38125 5.73125 -2.0625 4.5625 C-1 1 -1 1 0 0 Z " fill="#F8F8F8" transform="translate(183,236)"/>
<path d="M0 0 C2.5625 0.1875 2.5625 0.1875 4.5625 2.1875 C3.98557692 8.76442308 3.98557692 8.76442308 2.5625 10.1875 C0.125 10.375 0.125 10.375 -2.4375 10.1875 C-3.0975 9.5275 -3.7575 8.8675 -4.4375 8.1875 C-3.74456522 0.28804348 -3.74456522 0.28804348 0 0 Z " fill="#222222" transform="translate(193.4375,214.8125)"/>
<path d="M0 0 C4.55555556 0.55555556 4.55555556 0.55555556 6 2 C6.1875 4.9375 6.1875 4.9375 6 8 C4 10 4 10 1.4375 10.1875 C-1 10 -1 10 -2 9 C-2.1875 5.5625 -2.1875 5.5625 -2 2 C-1.34 1.34 -0.68 0.68 0 0 Z " fill="#1E1E1E" transform="translate(181,215)"/>
<path d="M0 0 C0.66 0.33 1.32 0.66 2 1 C2.39171753 2.65391846 2.72057545 4.32345271 3 6 C3.33 6.99 3.66 7.98 4 9 C4.66 9.33 5.32 9.66 6 10 C6.433125 8.5459375 6.433125 8.5459375 6.875 7.0625 C8 4 8 4 10 3 C10 5.64 10 8.28 10 11 C8.18757948 11.02687279 6.37504767 11.04633715 4.5625 11.0625 C3.55316406 11.07410156 2.54382812 11.08570313 1.50390625 11.09765625 C-1 11 -1 11 -2 10 C-2.35897436 3.53846154 -2.35897436 3.53846154 0 0 Z " fill="#F6F6F6" transform="translate(57,234)"/>
<path d="M0 0 C0.66 0 1.32 0 2 0 C2 3.63 2 7.26 2 11 C-0.31 11 -2.62 11 -5 11 C-5 7.7 -5 4.4 -5 1 C-4.01 2.485 -4.01 2.485 -3 4 C-2.54625 3.34 -2.0925 2.68 -1.625 2 C-1.08875 1.34 -0.5525 0.68 0 0 Z " fill="#BDBFC0" transform="translate(204,234)"/>
<path d="M0 0 C0.66 0 1.32 0 2 0 C2.66 0.99 3.32 1.98 4 3 C4.33 2.01 4.66 1.02 5 0 C5.99 0.33 6.98 0.66 8 1 C8 2.32 8 3.64 8 5 C8.66 5 9.32 5 10 5 C10.33 3.35 10.66 1.7 11 0 C12.46726798 3.81489674 11.43336419 6.29011622 10 10 C9.01 9.67 8.02 9.34 7 9 C6.67 8.01 6.34 7.02 6 6 C5.34 7.32 4.68 8.64 4 10 C3.34 10 2.68 10 2 10 C1.34 6.7 0.68 3.4 0 0 Z " fill="#2A2A2B" transform="translate(1,215)"/>
<path d="M0 0 C2.64 0 5.28 0 8 0 C8 0.66 8 1.32 8 2 C7.01 2 6.02 2 5 2 C5 4.97 5 7.94 5 11 C3.35 11 1.7 11 0 11 C0 7.37 0 3.74 0 0 Z " fill="#A1A2A4" transform="translate(0,234)"/>
<path d="M0 0 C2.375 -0.1875 2.375 -0.1875 5 0 C7.29013653 3.4352048 7.17842973 4.985331 7 9 C4.69 9 2.38 9 0 9 C0 6.03 0 3.06 0 0 Z " fill="#FAFAFB" transform="translate(101,236)"/>
<path d="M0 0 C1.98 0 3.96 0 6 0 C6 2.97 6 5.94 6 9 C4.33388095 9.042721 2.66617115 9.04063832 1 9 C0 8 0 8 -0.09765625 6.15234375 C-0.06510417 4.1015625 -0.03255208 2.05078125 0 0 Z " fill="#FAFAFA" transform="translate(94,236)"/>
<path d="M0 0 C2.475 0.495 2.475 0.495 5 1 C5.87890625 7.15234375 5.87890625 7.15234375 6 9 C5.67 9.33 5.34 9.66 5 10 C3.35 10 1.7 10 0 10 C0 6.7 0 3.4 0 0 Z " fill="#59595A" transform="translate(77,215)"/>
<path d="M0 0 C2.97 0.495 2.97 0.495 6 1 C6 3.97 6 6.94 6 10 C5.34 9.67 4.68 9.34 4 9 C4 8.34 4 7.68 4 7 C3.34 7 2.68 7 2 7 C2 8.32 2 9.64 2 11 C1.34 11 0.68 11 0 11 C0 7.37 0 3.74 0 0 Z " fill="#A1A2A4" transform="translate(162,234)"/>
<path d="M0 0 C1.67542976 0.28604898 3.34385343 0.61781233 5 1 C5 3.97 5 6.94 5 10 C4.34 9.67 3.68 9.34 3 9 C3 8.34 3 7.68 3 7 C2.34 7 1.68 7 1 7 C1 8.32 1 9.64 1 11 C0.34 11 -0.32 11 -1 11 C-1.02688151 9.35425434 -1.04634123 7.70838587 -1.0625 6.0625 C-1.07410156 5.14597656 -1.08570312 4.22945312 -1.09765625 3.28515625 C-1 1 -1 1 0 0 Z " fill="#A1A2A4" transform="translate(76,234)"/>
<path d="M0 0 C2.97 0.495 2.97 0.495 6 1 C5.979375 2.11375 5.95875 3.2275 5.9375 4.375 C5.73619282 7.83215921 5.73619282 7.83215921 7 10 C5.68 9.34 4.36 8.68 3 8 C2.67 8.66 2.34 9.32 2 10 C1.34 10 0.68 10 0 10 C0 6.7 0 3.4 0 0 Z " fill="#474848" transform="translate(25,215)"/>
<path d="M0 0 C0.66 0 1.32 0 2 0 C2.66 0.99 3.32 1.98 4 3 C4.33 2.01 4.66 1.02 5 0 C5.66 0 6.32 0 7 0 C7.33 1.65 7.66 3.3 8 5 C8.66 5 9.32 5 10 5 C10.33 3.35 10.66 1.7 11 0 C12.0326802 2.78823655 12.04509293 3.8677274 11.0625 6.75 C10.711875 7.4925 10.36125 8.235 10 9 C9.01 8.67 8.02 8.34 7 8 C6.67 7.01 6.34 6.02 6 5 C5.34 6.32 4.68 7.64 4 9 C2 8 2 8 1.3671875 6.15234375 C1.20476562 5.42144531 1.04234375 4.69054687 0.875 3.9375 C0.70742187 3.20402344 0.53984375 2.47054687 0.3671875 1.71484375 C0.24601563 1.14894531 0.12484375 0.58304688 0 0 Z " fill="#7E7F82" transform="translate(170,235)"/>
<path d="M0 0 C0 3.3 0 6.6 0 10 C-0.66 10 -1.32 10 -2 10 C-2 9.34 -2 8.68 -2 8 C-3.32 8 -4.64 8 -6 8 C-6 5.69 -6 3.38 -6 1 C-1.125 0 -1.125 0 0 0 Z " fill="#FCFCFC" transform="translate(75,235)"/>
<path d="M0 0 C3.39914975 1.13304992 4.05254451 2.12518475 6 5 C6.33 3.35 6.66 1.7 7 0 C7.33 0 7.66 0 8 0 C8 3.3 8 6.6 8 10 C6.35 8.35 4.7 6.7 3 5 C2.67 6.65 2.34 8.3 2 10 C1.34 10 0.68 10 0 10 C0 6.7 0 3.4 0 0 Z " fill="#0D0D0D" transform="translate(111,215)"/>
<path d="M0 0 C0.66 0 1.32 0 2 0 C2.33 0.99 2.66 1.98 3 3 C3.66 2.01 4.32 1.02 5 0 C5.66 0.33 6.32 0.66 7 1 C6.62875 1.7425 6.2575 2.485 5.875 3.25 C4.70484137 5.94283647 4.70484137 5.94283647 5.875 8.3125 C6.431875 9.1478125 6.431875 9.1478125 7 10 C6.01 9.67 5.02 9.34 4 9 C3.67 8.34 3.34 7.68 3 7 C2.67 7.99 2.34 8.98 2 10 C1.34 10 0.68 10 0 10 C0 6.7 0 3.4 0 0 Z " fill="#2D2D2D" transform="translate(63,215)"/>
<path d="M0 0 C1.65 0 3.3 0 5 0 C5 0.66 5 1.32 5 2 C4.01 2.33 3.02 2.66 2 3 C3.32 3.99 4.64 4.98 6 6 C5.67 7.32 5.34 8.64 5 10 C3.02 10 1.04 10 -1 10 C-1 9.34 -1 8.68 -1 8 C0.32 7.67 1.64 7.34 3 7 C1.68 6.01 0.36 5.02 -1 4 C-0.67 2.68 -0.34 1.36 0 0 Z " fill="#3A3A3A" transform="translate(131,215)"/>
<path d="M0 0 C1.65 0 3.3 0 5 0 C5 0.66 5 1.32 5 2 C4.01 2.33 3.02 2.66 2 3 C3.32 3.99 4.64 4.98 6 6 C5.67 7.32 5.34 8.64 5 10 C3.02 10 1.04 10 -1 10 C-1 9.34 -1 8.68 -1 8 C0.32 7.67 1.64 7.34 3 7 C1.68 6.01 0.36 5.02 -1 4 C-0.67 2.68 -0.34 1.36 0 0 Z " fill="#3C3C3C" transform="translate(97,215)"/>
<path d="M0 0 C0.99 1.32 1.98 2.64 3 4 C3.99 2.68 4.98 1.36 6 0 C9.125 6.625 9.125 6.625 8 10 C7.34 8.68 6.68 7.36 6 6 C5.01 7.485 5.01 7.485 4 9 C3.01 8.67 2.02 8.34 1 8 C0.67 5.36 0.34 2.72 0 0 Z " fill="#818386" transform="translate(140,235)"/>
<path d="M0 0 C0.33 1.32 0.66 2.64 1 4 C2.32 4 3.64 4 5 4 C5 2.68 5 1.36 5 0 C5.66 0 6.32 0 7 0 C7 3.3 7 6.6 7 10 C6.34 10 5.68 10 5 10 C5 8.68 5 7.36 5 6 C3.68 6 2.36 6 1 6 C0.67 7.32 0.34 8.64 0 10 C0 6.7 0 3.4 0 0 Z " fill="#2E2E2E" transform="translate(169,215)"/>
<path d="M0 0 C0 3.3 0 6.6 0 10 C-1.32 10 -2.64 10 -4 10 C-4 7.03 -4 4.06 -4 1 C-1 0 -1 0 0 0 Z " fill="#FFFFFF" transform="translate(9,235)"/>
<path d="M0 0 C0.66 0 1.32 0 2 0 C2.33 1.32 2.66 2.64 3 4 C3.66 2.68 4.32 1.36 5 0 C5.66 0 6.32 0 7 0 C6.745504 1.48206495 6.47088238 2.96068615 6.1875 4.4375 C6.03667969 5.26121094 5.88585938 6.08492187 5.73046875 6.93359375 C5.36888672 7.95646484 5.36888672 7.95646484 5 9 C4.01 9.33 3.02 9.66 2 10 C1.34 8.68 0.68 7.36 0 6 C-0.33 6 -0.66 6 -1 6 C-1.042721 4.33388095 -1.04063832 2.66617115 -1 1 C-0.67 0.67 -0.34 0.34 0 0 Z " fill="#212222" transform="translate(39,215)"/>
<path d="M0 0 C1.65 0.33 3.3 0.66 5 1 C5 2.65 5 4.3 5 6 C3.35 6.33 1.7 6.66 0 7 C-1.125 2.25 -1.125 2.25 0 0 Z " fill="#F5F5F5" transform="translate(120,236)"/>
<path d="M0 0 C1.98 0 3.96 0 6 0 C4.68 0.33 3.36 0.66 2 1 C2 1.99 2 2.98 2 4 C3.32 4 4.64 4 6 4 C6 4.66 6 5.32 6 6 C4.68 6 3.36 6 2 6 C2 6.99 2 7.98 2 9 C3.32 9.33 4.64 9.66 6 10 C4.02 10 2.04 10 0 10 C0 6.7 0 3.4 0 0 Z " fill="#1E1E1E" transform="translate(122,215)"/>
<path d="M0 0 C2 1 2 1 3.1875 3.375 C4 6 4 6 3 9 C3 8.34 3 7.68 3 7 C1.35 7 -0.3 7 -2 7 C-2.33 7.99 -2.66 8.98 -3 10 C-3.33 9.34 -3.66 8.68 -4 8 C-3.22265625 6.0546875 -3.22265625 6.0546875 -2.0625 3.875 C-1.49208984 2.78832031 -1.49208984 2.78832031 -0.91015625 1.6796875 C-0.60980469 1.12539062 -0.30945313 0.57109375 0 0 Z " fill="#8E9093" transform="translate(156,235)"/>
<path d="M0 0 C1.65 0 3.3 0 5 0 C5 0.66 5 1.32 5 2 C3.68 2 2.36 2 1 2 C1 2.66 1 3.32 1 4 C2.32 4.66 3.64 5.32 5 6 C4.67 7.32 4.34 8.64 4 10 C2.35 10 0.7 10 -1 10 C0.32 9.67 1.64 9.34 3 9 C3 8.01 3 7.02 3 6 C1.68 5.34 0.36 4.68 -1 4 C-0.67 2.68 -0.34 1.36 0 0 Z " fill="#1E1E1F" transform="translate(152,215)"/>
<path d="M0 0 C1.32 0 2.64 0 4 0 C4 1.98 4 3.96 4 6 C2.0625 6.5625 2.0625 6.5625 0 7 C-1 6 -1 6 -1.125 3.5 C-1 1 -1 1 0 0 Z " fill="#E7E7E7" transform="translate(192,217)"/>
<path d="M0 0 C3.34905453 3.34905453 3.89470285 5.49378854 5 10 C4.34 10 3.68 10 3 10 C2.34 8.35 1.68 6.7 1 5 C-1.2236068 6.9254644 -1.2236068 6.9254644 -2 10 C-2.66 9.67 -3.32 9.34 -4 9 C-2.68 6.03 -1.36 3.06 0 0 Z " fill="#171717" transform="translate(18,215)"/>
<path d="M0 0 C1.32 0 2.64 0 4 0 C3 2 3 2 1 3 C2.32 3.99 3.64 4.98 5 6 C4.67 7.32 4.34 8.64 4 10 C2.35 10 0.7 10 -1 10 C0.32 8.68 1.64 7.36 3 6 C1.68 5.67 0.36 5.34 -1 5 C-0.67 3.35 -0.34 1.7 0 0 Z " fill="#181818" transform="translate(140,215)"/>
<path d="M0 0 C1.32 0 2.64 0 4 0 C4 3.63 4 7.26 4 11 C2.68 10.67 1.36 10.34 0 10 C0 6.7 0 3.4 0 0 Z " fill="#9E9FA1" transform="translate(184,234)"/>
<path d="M0 0 C1.32 0 2.64 0 4 0 C4 3.63 4 7.26 4 11 C2.68 10.67 1.36 10.34 0 10 C0 6.7 0 3.4 0 0 Z " fill="#A1A2A3" transform="translate(52,234)"/>
<path d="M0 0 C1.2065625 0.0309375 1.2065625 0.0309375 2.4375 0.0625 C2.1075 0.7225 1.7775 1.3825 1.4375 2.0625 C0.4475 2.3925 -0.5425 2.7225 -1.5625 3.0625 C-1.5625 4.7125 -1.5625 6.3625 -1.5625 8.0625 C-0.2425 8.7225 1.0775 9.3825 2.4375 10.0625 C0.0625 10.1875 0.0625 10.1875 -2.5625 10.0625 C-3.2225 9.4025 -3.8825 8.7425 -4.5625 8.0625 C-3.86352916 0.09423242 -3.86352916 0.09423242 0 0 Z " fill="#111111" transform="translate(163.5625,214.9375)"/>
<path d="M0 0 C0.99 0.33 1.98 0.66 3 1 C3 2.98 3 4.96 3 7 C1.68 7 0.36 7 -1 7 C-1.04254356 5.00045254 -1.04080783 2.99958364 -1 1 C-0.67 0.67 -0.34 0.34 0 0 Z " fill="#F1F1F1" transform="translate(182,216)"/>
<path d="M0 0 C0.78375 0.04125 1.5675 0.0825 2.375 0.125 C2.045 0.785 1.715 1.445 1.375 2.125 C0.385 1.795 -0.605 1.465 -1.625 1.125 C-1.625 3.435 -1.625 5.745 -1.625 8.125 C-0.305 8.785 1.015 9.445 2.375 10.125 C0 10.25 0 10.25 -2.625 10.125 C-4.625 8.125 -4.625 8.125 -4.875 5.125 C-4.55416156 1.2749387 -3.94115238 0.18767392 0 0 Z " fill="#121212" transform="translate(58.625,214.875)"/>
<path d="M0 0 C0.99 0 1.98 0 3 0 C3 2.97 3 5.94 3 9 C2.01 9 1.02 9 0 9 C0 6.03 0 3.06 0 0 Z " fill="#FFFFFF" transform="translate(0,236)"/>
<path d="M0 0 C0.99 0 1.98 0 3 0 C3 3.63 3 7.26 3 11 C2.01 11 1.02 11 0 11 C0 7.37 0 3.74 0 0 Z " fill="#999B9D" transform="translate(92,234)"/>
<path d="M0 0 C0.33 0 0.66 0 1 0 C1 2.64 1 5.28 1 8 C-0.32 8 -1.64 8 -3 8 C-2.25 2.25 -2.25 2.25 0 0 Z " fill="#FEFEFE" transform="translate(66,237)"/>
<path d="M0 0 C2.31 0 4.62 0 7 0 C7 0.66 7 1.32 7 2 C6.01 2 5.02 2 4 2 C4 4.97 4 7.94 4 11 C3.67 11 3.34 11 3 11 C3 8.03 3 5.06 3 2 C2.01 2 1.02 2 0 2 C0 1.34 0 0.68 0 0 Z " fill="#828588" transform="translate(97,234)"/>
<path d="M0 0 C1.32 0 2.64 0 4 0 C4 1.65 4 3.3 4 5 C2.68 5 1.36 5 0 5 C0 3.35 0 1.7 0 0 Z " fill="#FFFFFF" transform="translate(11,240)"/>
<path d="M0 0 C4.75 -0.125 4.75 -0.125 7 1 C7 1.66 7 2.32 7 3 C4.36 3 1.72 3 -1 3 C-0.67 2.01 -0.34 1.02 0 0 Z " fill="#EFEFEF" transform="translate(154,242)"/>
<path d="M0 0 C0.33 0 0.66 0 1 0 C1.33 2.31 1.66 4.62 2 7 C0.02 7 -1.96 7 -4 7 C-3 5 -3 5 -1 2 C-0.67 1.34 -0.34 0.68 0 0 Z " fill="#EFEFEF" transform="translate(176,238)"/>
</svg>
